<?xml version="1.0" standalone="no"?>
<!DOCTYPE svg PUBLIC "-//W3C//DTD SVG 1.1//EN" "http://www.w3.org/Graphics/SVG/1.1/DTD/svg11.dtd" >
<svg xmlns="http://www.w3.org/2000/svg">
<metadata></metadata>
<defs>
<font id="arimoitalic" horiz-adv-x="1127" >
<font-face units-per-em="2048" ascent="1638" descent="-410" />
<missing-glyph horiz-adv-x="563" />
<glyph horiz-adv-x="2048" />
<glyph horiz-adv-x="2048" />
<glyph unicode="&#xd;" horiz-adv-x="563" />
<glyph unicode=" "  horiz-adv-x="563" />
<glyph unicode="&#x09;" horiz-adv-x="563" />
<glyph unicode="&#xa0;" horiz-adv-x="563" />
<glyph unicode="!" horiz-adv-x="563" d="M326 393h-147l170 1002h195zM76 0l40 199h192l-40 -199h-192z" />
<glyph unicode="&#x22;" horiz-adv-x="719" d="M690 956h-141l64 439h182zM325 956h-140l63 439h182z" />
<glyph unicode="#" d="M917 876l-77 -365h257v-107h-280l-87 -404h-109l85 404h-360l-83 -404h-109l84 404h-199v107h222l78 365h-250v107h271l88 404h109l-87 -404h360l87 404h109l-87 -404h208v-107h-230zM450 876l-79 -365h359l77 365h-357z" />
<glyph unicode="$" d="M1061 421q0 -183 -136 -287.5t-390 -112.5l-31 -160h-113l32 162q-199 14 -303.5 103t-131.5 246l161 37q25 -114 97 -172.5t204 -68.5l95 488q-147 41 -219 86t-109.5 109t-37.5 157q0 111 64.5 192.5t180 125.5t260.5 45l25 130h113l-27 -136q154 -19 246 -93t117 -196 l-154 -44q-45 165 -236 192l-85 -437q194 -52 286 -143.5t92 -222.5zM878 409q0 77 -50 127t-176 90l-89 -459q315 17 315 242zM359 1008q0 -67 44.5 -109.5t172.5 -81.5l80 411q-143 -5 -220 -61.5t-77 -158.5z" />
<glyph unicode="%" horiz-adv-x="1802" d="M421 0h-164l1175 1395h165zM540 1407q123 0 189.5 -78.5t66.5 -226.5q0 -105 -27 -219.5t-81 -197t-126 -124.5t-160 -42q-123 0 -190 81.5t-67 232.5q0 145 46 286t133 214.5t216 73.5zM539 1300q-67 0 -109.5 -31t-74 -96.5t-53 -171.5t-21.5 -182q0 -188 125 -188 q84 0 138.5 66t84 197t29.5 226q0 180 -119 180zM1459 876q124 0 190.5 -78t66.5 -227q0 -105 -27 -219t-81.5 -197t-126 -125t-159.5 -42q-123 0 -190.5 81.5t-67.5 232.5q0 145 46 286.5t133.5 214.5t215.5 73zM1458 769q-66 0 -108.5 -30.5t-74.5 -96.5t-53 -172 t-21 -182q0 -188 125 -188q84 0 138.5 66.5t84 197t29.5 225.5q0 180 -120 180z" />
<glyph unicode="&#x26;" horiz-adv-x="1352" d="M1236 677q-138 -312 -289 -471q40 -38 90 -58t96 -20q59 0 110 16l-12 -134q-60 -22 -124 -22q-148 0 -268 121q-177 -129 -403 -129q-188 0 -295.5 99.5t-107.5 267.5q0 156 92 257.5t332 193.5q-27 118 -27 228q0 171 107 274t288 103q136 0 222 -71.5t86 -188.5 q0 -114 -81 -199.5t-289 -167.5l-123 -49q75 -222 215 -415q60 67 116.5 160t133.5 260zM447 110q162 0 298 100q-72 89 -138 210.5t-110 247.5q-166 -65 -231 -137t-65 -181t68 -174.5t178 -65.5zM586 1031q0 -78 19 -177q78 29 146.5 55t119.5 57.5t80 72t29 98.5 q0 64 -45 105t-117 41q-111 0 -171.5 -67t-60.5 -185z" />
<glyph unicode="'" horiz-adv-x="387" d="M340 956h-140l62 439h183z" />
<glyph unicode="(" horiz-adv-x="675" d="M846 1469q-572 -504 -572 -1210q0 -385 205 -679h-172q-212 293 -212 695q0 369 148.5 672.5t430.5 521.5h172z" />
<glyph unicode=")" horiz-adv-x="675" d="M-197 -420q572 504 572 1210q0 385 -205 679h173q211 -293 211 -695q0 -368 -148.5 -672t-430.5 -522h-172z" />
<glyph unicode="*" horiz-adv-x="789" d="M538 1103l261 102l44 -131l-279 -72l183 -248l-117 -71l-149 256l-154 -254l-118 71l187 246l-277 72l44 133l265 -106l-12 294h134z" />
<glyph unicode="+" horiz-adv-x="1184" d="M694 602v-424h-146v424h-419v144h419v424h146v-424h420v-144h-420z" />
<glyph unicode="," horiz-adv-x="563" d="M158 -259h-121q118 135 143 259h-87l42 217h193l-32 -167q-18 -94 -50.5 -168t-87.5 -141z" />
<glyph unicode="-" horiz-adv-x="675" d="M104 459l31 159h495l-31 -159h-495z" />
<glyph unicode="." horiz-adv-x="563" d="M79 0l43 217h193l-43 -217h-193z" />
<glyph unicode="/" horiz-adv-x="563" d="M-115 -20l696 1489h157l-693 -1489h-160z" />
<glyph unicode="0" d="M725 1416q181 0 283.5 -122t102.5 -340q0 -253 -77.5 -490t-219 -360.5t-343.5 -123.5q-179 0 -281 128t-102 352q0 179 44 363t123 318.5t195 204.5t275 70zM486 126q150 0 244.5 105t151 326t56.5 406q0 154 -59 231t-166 77q-150 0 -244.5 -105t-151 -326t-56.5 -406 q0 -154 59 -231t166 -77z" />
<glyph unicode="1" d="M52 0l30 151h356l206 1060l-358 -221l35 178l373 227h164l-241 -1244h339l-29 -151h-875z" />
<glyph unicode="2" d="M-12 0l24 126q54 92 121.5 164t140.5 131t149 107.5t147 93.5t132.5 89.5t108 95t73.5 110.5t27 135q0 97 -62 157t-167 60q-108 0 -188 -59t-117 -176l-168 36q53 168 176 257t308 89q180 0 292.5 -97t112.5 -252q0 -105 -50.5 -201t-152 -184t-305.5 -217 q-145 -92 -235 -167t-135 -147h720l-29 -151h-923z" />
<glyph unicode="3" d="M560 787q182 0 271.5 72.5t89.5 210.5q0 92 -60 145.5t-160 53.5q-118 0 -202.5 -60.5t-118.5 -169.5l-176 13q57 185 189.5 274.5t317.5 89.5t292 -91t107 -250q0 -151 -95.5 -246.5t-269.5 -118.5l-1 -4q130 -26 202.5 -103.5t72.5 -199.5q0 -124 -60 -220.5 t-173.5 -149.5t-264.5 -53q-127 0 -224 43.5t-161 123.5t-88 188l162 47q30 -115 117 -184.5t209 -69.5q139 0 218 73.5t79 198.5q0 111 -74.5 172t-202.5 61h-122l29 154h97z" />
<glyph unicode="4" d="M838 316l-62 -316h-178l61 316h-646l27 138l810 941h197l-182 -939h186l-27 -140h-186zM818 1145l-593 -689h462z" />
<glyph unicode="5" d="M340 1395h793l-29 -152h-631l-113 -442q50 41 121 65t154 24q182 0 293.5 -105.5t111.5 -283.5q0 -244 -142.5 -382.5t-397.5 -138.5q-367 0 -454 326l161 42q31 -112 109 -167t194 -55q164 0 253 92.5t89 262.5q0 121 -68 192t-183 71q-161 0 -279 -100h-174z" />
<glyph unicode="6" d="M529 -20q-191 0 -303 133t-112 346q0 239 82.5 472t226 359t330.5 126q149 0 244.5 -71t130.5 -206l-165 -35q-24 80 -80.5 123.5t-137.5 43.5q-162 0 -276 -144.5t-165 -407.5q59 89 149.5 136t202.5 47q171 0 276 -104t105 -270q0 -151 -66 -278t-182.5 -198.5 t-259.5 -71.5zM285 417q0 -130 67.5 -211.5t180.5 -81.5q137 0 228 111t91 282q0 114 -58.5 180.5t-169.5 66.5q-92 0 -170 -42t-123.5 -119t-45.5 -186z" />
<glyph unicode="7" d="M431 0h-186q40 202 122.5 384t206 361.5t402.5 497.5h-766l29 152h951l-28 -145q-221 -259 -305 -368t-151 -212t-119.5 -208.5t-92 -220t-63.5 -241.5z" />
<glyph unicode="8" d="M697 1415q189 0 304 -90.5t115 -244.5q0 -139 -86 -236t-231 -118l-1 -4q109 -33 167 -109t58 -185q0 -206 -140.5 -327t-387.5 -121q-211 0 -326.5 100t-115.5 276q0 149 90.5 251.5t263.5 140.5v4q-90 38 -139.5 113t-49.5 176q0 176 128.5 275t350.5 99zM651 803 q133 0 207 70.5t74 202.5q0 97 -65 151t-191 54q-132 0 -206 -66.5t-74 -191.5q0 -102 68 -161t187 -59zM560 665q-154 0 -238.5 -82t-84.5 -231q0 -110 73 -173t204 -63q146 0 237 85t91 231q0 110 -76 171.5t-206 61.5z" />
<glyph unicode="9" d="M889 677q-133 -201 -336 -201q-116 0 -205.5 51t-138 142t-48.5 203q0 151 65.5 276t184 196.5t264.5 71.5q194 0 302.5 -126t108.5 -343q0 -153 -37 -320t-99.5 -290.5t-141.5 -203.5t-171.5 -116.5t-188.5 -36.5q-304 0 -379 274l157 45q23 -84 81.5 -129.5 t148.5 -45.5q157 0 267.5 143t165.5 410zM916 1007q0 120 -68.5 192t-176.5 72q-146 0 -237 -107t-91 -294q0 -121 62 -187t169 -66q93 0 175 50.5t124.5 134.5t42.5 205z" />
<glyph unicode=":" horiz-adv-x="563" d="M248 866l41 205h193l-40 -205h-194zM80 0l41 205h193l-41 -205h-193z" />
<glyph unicode=";" horiz-adv-x="563" d="M159 -259h-121q118 135 143 259h-87l40 205h193l-30 -155q-18 -94 -50.5 -168t-87.5 -141zM262 866l40 205h193l-40 -205h-193z" />
<glyph unicode="&#x3c;" horiz-adv-x="1184" d="M130 565v203l985 414v-152l-850 -363l850 -363v-152z" />
<glyph unicode="=" horiz-adv-x="1184" d="M129 847v147h985v-147h-985zM129 341v146h985v-146h-985z" />
<glyph unicode="&#x3e;" horiz-adv-x="1184" d="M130 152v152l849 363l-849 363v152l985 -414v-203z" />
<glyph unicode="?" d="M694 1416q195 0 311.5 -99t116.5 -255q0 -96 -30.5 -163.5t-78.5 -117.5t-108 -87t-119 -71q-126 -72 -174.5 -127t-62.5 -123h-173q13 79 47.5 138t86.5 105.5t185 122.5q105 59 150.5 100t68.5 90.5t23 111.5q0 97 -72.5 156.5t-187.5 59.5q-138 0 -228.5 -69 t-127.5 -190l-164 40q63 193 198 285.5t339 92.5zM296 0l39 199h193l-39 -199h-193z" />
<glyph unicode="@" horiz-adv-x="2058" d="M1916 747q0 -184 -57 -333t-158.5 -230t-227.5 -81q-100 0 -152.5 45t-52.5 129l3 69h-6q-65 -121 -161.5 -182t-208.5 -61q-155 0 -241 101t-86 280q0 162 64 302t179 222t254 82q217 0 298 -180h6l39 158h154l-115 -501q-36 -162 -36 -250q0 -93 80 -93q79 0 146 68 t105.5 188t38.5 265q0 178 -76 315t-220 210.5t-336 73.5q-239 0 -423 -105.5t-289 -305t-105 -447.5q0 -191 77.5 -337t224.5 -224t343 -78q310 0 597 160l55 -111q-144 -86 -312 -131t-340 -45q-237 0 -415 94t-274 269t-96 403q0 277 123.5 504t342 353t489.5 126 q239 0 412 -89.5t265 -253t92 -379.5zM1316 740q0 101 -65.5 162.5t-174.5 61.5q-100 0 -177.5 -62.5t-122 -175.5t-44.5 -240q0 -119 47 -186t145 -67q79 0 151 43.5t126.5 120t84.5 174t30 169.5z" />
<glyph unicode="A" horiz-adv-x="1352" d="M1050 0l-74 408h-632l-238 -408h-206l840 1395h214l289 -1395h-193zM822 1252q-13 -25 -37 -68t-358 -629h521l-101 548z" />
<glyph unicode="B" horiz-adv-x="1352" d="M333 1395h505q206 0 325.5 -85.5t119.5 -233.5q0 -282 -336 -340q137 -23 212.5 -104t75.5 -197q0 -211 -154.5 -323t-429.5 -112h-589zM407 802h328q351 0 351 255q0 186 -265 186h-328zM280 151h364q208 0 304.5 73t96.5 214q0 106 -78.5 161t-225.5 55h-363z" />
<glyph unicode="C" horiz-adv-x="1464" d="M1344 334q-124 -186 -282.5 -270t-368.5 -84q-179 0 -311.5 72t-201 204.5t-68.5 306.5q0 244 104 441t288.5 304.5t412.5 107.5q215 0 363 -89.5t195 -252.5l-178 -54q-36 111 -138.5 176t-251.5 65q-182 0 -321 -87.5t-213 -246.5t-74 -367q0 -198 108 -312t299 -114 q146 0 273 72.5t224 215.5z" />
<glyph unicode="D" horiz-adv-x="1464" d="M737 1395q308 0 485 -163t177 -449q0 -234 -102 -409t-293.5 -274.5t-434.5 -99.5h-507l271 1395h404zM280 151h281q193 0 340.5 77t226.5 221t79 336q0 217 -125 337.5t-349 120.5h-240z" />
<glyph unicode="E" horiz-adv-x="1352" d="M62 0l271 1395h1038l-30 -155h-849l-87 -447h790l-30 -152h-790l-94 -487h890l-30 -154h-1079z" />
<glyph unicode="F" horiz-adv-x="1238" d="M492 1240l-101 -518h788l-31 -157h-788l-109 -565h-189l271 1395h1001l-30 -155h-812z" />
<glyph unicode="G" horiz-adv-x="1577" d="M735 -20q-302 0 -468.5 154.5t-166.5 432.5q0 247 104 441.5t294.5 301t436.5 106.5q219 0 360 -83.5t195 -245.5l-191 -53q-37 113 -133 170t-243 57q-190 0 -333.5 -85t-219.5 -242t-76 -363q0 -209 117 -323t330 -114q136 0 261 39t217 115l50 252h-417l32 158h591 l-99 -490q-138 -119 -295 -173.5t-346 -54.5z" />
<glyph unicode="H" horiz-adv-x="1464" d="M1011 0l126 646h-760l-126 -646h-189l272 1395h189l-115 -590h759l115 590h184l-271 -1395h-184z" />
<glyph unicode="I" horiz-adv-x="563" d="M80 0l271 1395h190l-272 -1395h-189z" />
<glyph unicode="J" horiz-adv-x="1013" d="M377 -20q-157 0 -256.5 92t-125.5 268l166 32q23 -116 78.5 -177t154.5 -61q104 0 168.5 71.5t93.5 230.5l156 804h-288l29 155h477l-191 -976q-43 -222 -156 -330.5t-306 -108.5z" />
<glyph unicode="K" horiz-adv-x="1352" d="M1012 0l-468 667l-188 -127l-105 -540h-189l271 1395h189l-135 -684l139 128l658 556h243l-743 -624l552 -771h-224z" />
<glyph unicode="L" d="M62 0l271 1395h189l-241 -1241h705l-30 -154h-894z" />
<glyph unicode="M" horiz-adv-x="1688" d="M1248 0l179 919q35 183 64 297q-90 -187 -144 -277l-542 -939h-123l-183 939q-6 28 -41 277q-9 -60 -29.5 -186t-197.5 -1030h-169l271 1395h233l187 -967q8 -39 32 -203l103 211l548 959h253l-270 -1395h-171z" />
<glyph unicode="N" horiz-adv-x="1464" d="M977 0l-526 1198q-21 -169 -41 -264l-179 -934h-169l271 1395h210l528 -1203q26 187 45 281l179 922h170l-270 -1395h-218z" />
<glyph unicode="O" horiz-adv-x="1577" d="M929 1416q274 0 433 -155.5t159 -418.5q-5 -265 -111 -458.5t-290 -298.5t-418 -105q-281 0 -436.5 156t-155.5 431q0 237 104.5 435.5t291.5 306t423 107.5zM920 1263q-198 0 -336 -88t-211.5 -263t-73.5 -355q0 -207 105.5 -315t306.5 -108q195 0 332 85.5t213 256.5 t76 363q0 204 -107.5 314t-304.5 110z" />
<glyph unicode="P" horiz-adv-x="1352" d="M843 1395q229 0 362.5 -103t133.5 -282q0 -218 -150.5 -342t-412.5 -124h-420l-105 -544h-189l271 1395h510zM386 693h383q378 0 378 308q0 118 -78 180t-230 62h-346z" />
<glyph unicode="Q" horiz-adv-x="1577" d="M919 1416q274 0 433 -155.5t159 -418.5q-5 -241 -93 -423t-244 -293t-360 -138q17 -120 66.5 -175t147.5 -55q57 0 121 13l-17 -132q-76 -22 -168 -22q-149 0 -229.5 85t-102.5 281q-251 17 -391.5 170.5t-140.5 413.5q0 237 104.5 435.5t291.5 306t423 107.5zM910 1263 q-198 0 -336 -88t-211.5 -263t-73.5 -355q0 -207 105.5 -315t306.5 -108q195 0 332 85.5t213 256.5t76 363q0 204 -107.5 314t-304.5 110z" />
<glyph unicode="R" horiz-adv-x="1464" d="M1040 0l-240 579h-437l-112 -579h-189l271 1395h606q211 0 337 -101t126 -265q0 -187 -107 -295.5t-316 -137.5l265 -596h-204zM848 729q180 0 271 74.5t91 210.5q0 111 -74 170t-220 59h-423l-100 -514h455z" />
<glyph unicode="S" horiz-adv-x="1352" d="M610 -20q-247 0 -383 87.5t-170 267.5l176 36q26 -127 118.5 -184.5t272.5 -57.5q217 0 316.5 64.5t99.5 198.5q0 66 -28.5 106.5t-98 72.5t-238.5 79t-252.5 96t-127 118.5t-43.5 166.5q0 180 152 282.5t412 102.5q218 0 349.5 -75.5t165.5 -219.5l-172 -51 q-32 104 -117 153.5t-227 49.5q-372 0 -372 -233q0 -60 25 -97.5t83 -66t230 -74.5q193 -54 277.5 -103.5t130 -120t45.5 -174.5q0 -204 -153.5 -314t-470.5 -110z" />
<glyph unicode="T" horiz-adv-x="1238" d="M849 1240l-241 -1240h-188l241 1240h-479l30 155h1146l-29 -155h-480z" />
<glyph unicode="U" horiz-adv-x="1464" d="M647 -20q-230 0 -363 119.5t-133 327.5q0 43 7.5 104t15.5 98l149 766h189l-161 -835q-16 -86 -16 -141q0 -135 86.5 -210t241.5 -75q380 0 457 402l166 859h188l-168 -870q-54 -271 -220 -408t-439 -137z" />
<glyph unicode="V" horiz-adv-x="1352" d="M670 0h-196l-299 1395h192l196 -982l35 -247l132 247l574 982h206z" />
<glyph unicode="W" horiz-adv-x="1913" d="M1392 0h-221l-70 886q-14 272 -16 321q-75 -197 -134 -321l-414 -886h-221l-141 1395h195l78 -886q12 -154 16 -343q79 186 129.5 299t439.5 930h181l74 -868q14 -153 17 -361l16 35q47 114 77 182t476 1012h199z" />
<glyph unicode="X" horiz-adv-x="1352" d="M989 0l-300 600l-519 -600h-209l648 739l-337 656h197l268 -546l470 546h209l-594 -669l364 -726h-197z" />
<glyph unicode="Y" horiz-adv-x="1352" d="M665 0h-188l114 578l-380 817h194l303 -667l554 667h212l-697 -817z" />
<glyph unicode="Z" horiz-adv-x="1238" d="M1071 0h-1111l27 142l1044 1098h-758l30 155h992l-27 -138l-1043 -1103h876z" />
<glyph unicode="[" horiz-adv-x="563" d="M-39 -421l367 1890h403l-25 -128h-231l-318 -1634h231l-25 -128h-402z" />
<glyph unicode="\" horiz-adv-x="563" d="M317 -20l-172 1489h146l176 -1489h-150z" />
<glyph unicode="]" horiz-adv-x="563" d="M-167 -421l24 128h230l318 1634h-231l25 128h403l-367 -1890h-402z" />
<glyph unicode="^" horiz-adv-x="951" d="M809 666l-306 627l-303 -627h-160l364 729h201l366 -729h-162z" />
<glyph unicode="_" d="M-158 -248v76h1166v-76h-1166z" />
<glyph unicode="`" horiz-adv-x="675" d="M408 1189l-279 275l5 29h205l159 -284l-3 -20h-87z" />
<glyph unicode="a" d="M918 -10q-92 0 -134 38t-42 114l4 63h-5q-83 -125 -171 -175t-213 -50q-138 0 -224.5 83.5t-86.5 211.5q0 183 131 277t418 98l230 3q18 97 18 126q0 90 -52 133t-146 43q-117 0 -177.5 -42t-87.5 -128l-176 29q44 145 154.5 211t296.5 66q170 0 268.5 -79t98.5 -213 q0 -63 -19 -155l-73 -375q-11 -47 -11 -87q0 -72 80 -72q27 0 59 7l-14 -111q-65 -16 -126 -16zM801 531l-197 -4q-118 -3 -185.5 -21.5t-104.5 -46.5t-58 -71t-21 -105q0 -74 48 -120.5t124 -46.5q96 0 173 41t127.5 107.5t66.5 142.5z" />
<glyph unicode="b" d="M737 1091q155 0 241.5 -93.5t86.5 -256.5q0 -201 -61 -390t-171 -280t-282 -91q-121 0 -197.5 51.5t-107.5 144.5h-3q-7 -36 -24 -104.5t-19 -71.5h-171q5 15 19 81.5t29 139.5l243 1248h178l-82 -419q-8 -45 -34 -138h4q72 94 152.5 136.5t198.5 42.5zM685 953 q-98 0 -168 -40t-118.5 -120.5t-76 -202t-27.5 -217.5q0 -124 63 -192.5t175 -68.5q122 0 193.5 74.5t112 237.5t40.5 285t-46.5 183t-147.5 61z" />
<glyph unicode="c" horiz-adv-x="1013" d="M464 121q203 0 286 227l155 -48q-120 -320 -445 -320q-190 0 -292 108t-102 303q0 198 72 368.5t190 251t291 80.5q167 0 264.5 -84t107.5 -231l-175 -25q-6 96 -59.5 148t-143.5 52q-125 0 -202 -66.5t-120 -212t-43 -287.5q0 -264 216 -264z" />
<glyph unicode="d" d="M397 -21q-155 0 -242 93.5t-87 257.5q0 201 61 389.5t171.5 279.5t281.5 91q122 0 198.5 -51.5t108.5 -144.5h5l28 160l81 415h178l-242 -1248q-29 -140 -38 -221h-170q0 50 20 158h-5q-72 -94 -152 -136.5t-197 -42.5zM448 117q98 0 168 40t118.5 120.5t76.5 202 t28 217.5q0 124 -63 192.5t-175 68.5q-121 0 -191 -71.5t-113 -234.5t-43 -291q0 -121 46.5 -182.5t147.5 -61.5z" />
<glyph unicode="e" d="M253 498q-5 -35 -8 -112q0 -132 65.5 -202t198.5 -70q96 0 174 47.5t122 129.5l136 -62q-72 -130 -183.5 -189.5t-269.5 -59.5q-199 0 -309.5 110.5t-110.5 310.5q0 199 70.5 357t198 245.5t287.5 87.5q203 0 315.5 -102t112.5 -288q0 -104 -23 -203h-776zM871 635l4 71 q0 123 -64 188t-183 65q-133 0 -223.5 -84.5t-127.5 -239.5h594z" />
<glyph unicode="f" horiz-adv-x="563" d="M430 941l-183 -941h-179l183 941h-150l26 130h150l23 121q23 111 60 166t98.5 83t157.5 28q73 0 123 -12l-26 -135l-45 6l-45 2q-63 0 -96 -32.5t-53 -130.5l-19 -96h209l-25 -130h-209z" />
<glyph unicode="g" d="M393 -421q-336 0 -389 250l161 41q35 -155 232 -155q141 0 218 72.5t109 239.5l33 172h-2q-61 -88 -108 -126.5t-106 -59.5t-135 -21q-152 0 -244.5 99.5t-92.5 263.5q0 132 37.5 284.5t101.5 253.5t156 149t218 48q120 0 202.5 -56.5t106.5 -145.5h2q7 37 25 105.5 t22 77.5h170l-19 -81l-30 -141l-159 -818q-48 -240 -170.5 -346t-338.5 -106zM256 369q0 -120 52 -182.5t153 -62.5q107 0 194 77.5t135.5 213t48.5 282.5q0 124 -63.5 192.5t-174.5 68.5q-89 0 -148.5 -36.5t-100 -114.5t-68.5 -208.5t-28 -229.5z" />
<glyph unicode="h" d="M379 888q82 114 165 158t197 44q146 0 220 -72.5t74 -208.5q0 -64 -21 -163l-126 -646h-179l125 639q17 87 17 148q0 165 -177 165q-125 0 -220 -95t-126 -257l-117 -600h-177l285 1469h178l-74 -382q-18 -99 -47 -199h3z" />
<glyph unicode="i" horiz-adv-x="450" d="M284 1299l34 170h178l-34 -170h-178zM33 0l208 1071h178l-209 -1071h-177z" />
<glyph unicode="j" horiz-adv-x="450" d="M286 1299l33 170h178l-33 -170h-178zM-99 -421q-55 0 -128 14l23 135q52 -8 82 -8q59 0 88.5 41.5t46.5 132.5l229 1177h178l-235 -1204q-31 -156 -100 -222t-184 -66z" />
<glyph unicode="k" horiz-adv-x="1013" d="M714 0l-266 497l-166 -123l-71 -374h-177l285 1469h178l-177 -908l202 188l357 322h220l-525 -460l333 -611h-193z" />
<glyph unicode="l" horiz-adv-x="450" d="M33 0l285 1469h178l-286 -1469h-177z" />
<glyph unicode="m" horiz-adv-x="1688" d="M653 0l123 628q25 123 25 172q0 74 -37.5 113t-122.5 39q-115 0 -201 -98t-112 -256l-117 -598h-177l164 842q20 95 39 229h168q0 -11 -10.5 -76.5t-17.5 -106.5h3q72 113 145 157.5t174 44.5q120 0 190 -59t84 -171q82 129 162 179.5t183 50.5q133 0 205 -72.5 t72 -208.5q0 -64 -21 -163l-126 -646h-176l123 628q25 123 25 172q0 74 -38 113t-123 39q-115 0 -200 -96.5t-113 -254.5l-116 -601h-177z" />
<glyph unicode="n" d="M710 0l125 639q17 87 17 148q0 165 -177 165q-125 0 -220 -95t-126 -257l-117 -600h-178l164 842q20 95 39 229h168q0 -11 -10.5 -76.5t-17.5 -106.5h3q82 114 165 158t197 44q146 0 220 -72.5t74 -208.5q0 -64 -21 -163l-126 -646h-179z" />
<glyph unicode="o" d="M1063 676q0 -129 -39.5 -268t-113 -235.5t-180.5 -144.5t-244 -48q-194 0 -307 117t-113 318q4 202 73.5 358.5t192 236.5t304.5 80q207 0 317 -108.5t110 -305.5zM879 676q0 283 -245 283q-134 0 -214.5 -68.5t-125.5 -208t-45 -270.5q0 -147 63.5 -223.5t184.5 -76.5 q102 0 164 34t108.5 107t75.5 185.5t34 237.5z" />
<glyph unicode="p" d="M548 -20q-121 0 -198 51.5t-108 144.5h-5q0 -11 -8.5 -64.5t-101.5 -532.5h-177l246 1273q23 110 35 219h165q0 -27 -6.5 -81.5t-10.5 -77.5h4q72 94 152.5 136.5t198.5 42.5q155 0 241.5 -93.5t86.5 -256.5q0 -201 -61 -390t-171 -280t-282 -91zM682 953 q-98 0 -167.5 -40t-118.5 -120.5t-76.5 -202t-27.5 -217.5q0 -124 63 -192.5t175 -68.5q122 0 193.5 74.5t112 237.5t40.5 285t-46.5 183t-147.5 61z" />
<glyph unicode="q" d="M397 -21q-155 0 -242 93.5t-87 257.5q0 201 61 389.5t171.5 279.5t281.5 91q122 0 198.5 -51.5t108.5 -144.5h5q11 53 27 116.5t21 74.5h172q-23 -77 -65 -292l-235 -1214h-178l84 435l31 144h-4q-72 -94 -152 -136.5t-198 -42.5zM448 117q98 0 168 40t118.5 120.5 t76.5 202t28 217.5q0 124 -63 192.5t-175 68.5q-121 0 -191 -71.5t-113 -234.5t-43 -291q0 -121 46.5 -182.5t147.5 -61.5z" />
<glyph unicode="r" horiz-adv-x="675" d="M711 929q-44 12 -89 12q-104 0 -188 -108.5t-113 -274.5l-109 -558h-178l160 822l25 136l18 113h168l-35 -219h4q66 132 129 185.5t146 53.5q46 0 94 -14z" />
<glyph unicode="s" horiz-adv-x="1013" d="M898 314q0 -161 -123 -247.5t-354 -86.5q-173 0 -274 58t-142 183l145 55q33 -87 102 -126.5t185 -39.5q141 0 214.5 48t73.5 140q0 61 -50.5 102.5t-214.5 91.5q-126 42 -189.5 81.5t-97 92.5t-33.5 123q0 144 114.5 221.5t323.5 77.5q351 0 394 -252l-161 -25 q-22 78 -82.5 112.5t-162.5 34.5q-122 0 -188 -39t-66 -110q0 -42 20.5 -70.5t60 -51t180.5 -66.5q126 -40 190 -80.5t99.5 -96t35.5 -130.5z" />
<glyph unicode="t" horiz-adv-x="563" d="M272 -20q-84 0 -132 50.5t-48 133.5q0 55 15 129l125 648h-124l26 130h125l104 240h119l-46 -240h198l-26 -130h-198l-124 -638q-12 -59 -12 -94q0 -87 89 -87q42 0 99 14l-18 -132q-98 -24 -172 -24z" />
<glyph unicode="u" d="M411 1071l-125 -638q-18 -87 -18 -149q0 -165 178 -165q124 0 219 95t127 257l117 600h178l-164 -842q-20 -94 -39 -229h-168q0 11 10.5 77t16.5 106h-2q-83 -114 -165.5 -158t-196.5 -44q-146 0 -220 72.5t-74 208.5q0 64 21 163l126 646h179z" />
<glyph unicode="v" horiz-adv-x="1013" d="M502 0h-211l-180 1071h185l100 -697q9 -67 19 -182l4 -52l26 52q44 93 92 180l380 699h194z" />
<glyph unicode="w" horiz-adv-x="1464" d="M1057 0h-207l-36 691l-6 234q-30 -75 -53.5 -130.5t-356.5 -794.5h-206l-91 1071h176l40 -727l7 -196l80 188l338 735h191l43 -735q6 -107 6 -188q33 78 417 923h174z" />
<glyph unicode="x" horiz-adv-x="1013" d="M699 0l-207 440l-376 -440h-197l487 550l-261 521h187l191 -417l346 417h204l-464 -519l278 -552h-188z" />
<glyph unicode="y" horiz-adv-x="1013" d="M16 -421q-71 0 -131 14l31 133q44 -8 76 -8q94 0 166 63.5t141 183.5l27 47l-215 1059h181l111 -592q15 -79 28 -168.5t14 -116.5q9 22 25 53.5t449 823.5h197l-620 -1071q-110 -191 -177 -268t-139.5 -115t-163.5 -38z" />
<glyph unicode="z" horiz-adv-x="1013" d="M-12 0l23 136l734 798h-560l25 137h776l-24 -135l-734 -798h614l-24 -138h-830z" />
<glyph unicode="{" horiz-adv-x="677" d="M362 -421q-110 0 -174.5 66t-64.5 182q0 61 10 116l55 284q9 43 9 76q0 82 -46 118t-130 40l25 126q108 4 171.5 61t86.5 173l69 358q28 142 102.5 216t215.5 74h134l-25 -128h-62q-89 0 -137 -46.5t-71 -165.5l-69 -353q-18 -94 -83 -161t-157 -88v-2q68 -17 108 -66.5 t40 -126.5q0 -27 -6 -59l-60 -316q-5 -23 -8.5 -63.5t-4.5 -56.5v-6q0 -56 34 -90t111 -34h47l-25 -128h-95z" />
<glyph unicode="|" horiz-adv-x="526" d="M211 -449v1918h164v-1918h-164z" />
<glyph unicode="}" horiz-adv-x="677" d="M305 1469q110 0 174.5 -66t64.5 -181q0 -62 -9 -116l-56 -284q-9 -43 -9 -77q0 -82 46 -118t130 -40l-24 -126q-109 -4 -172.5 -60.5t-86.5 -172.5l-69 -359q-28 -141 -102.5 -215.5t-215.5 -74.5h-133l24 128h63q88 0 136 46.5t72 166.5l68 352q19 94 83.5 161t156.5 89 v2q-68 17 -108 66.5t-40 126.5q0 27 6 58l60 316q5 24 8.5 64t4.5 57v6q0 55 -34 89t-110 34h-48l25 128h95z" />
<glyph unicode="~" horiz-adv-x="1184" d="M865 547q-68 0 -140 22t-144 48q-128 44 -215 44q-66 0 -123.5 -20t-121.5 -67v142q110 83 260 83q101 0 233 -46q145 -50 188 -60t79 -10q129 0 242 91v-147q-60 -42 -117 -61t-141 -19z" />
<glyph unicode="&#xa2;" d="M554 275q203 0 287 228l154 -49q-115 -305 -413 -319l-32 -166h-122l33 172q-147 21 -226 126.5t-79 277.5q0 135 38 270t102 228.5t156 144t224 56.5l28 151h123l-29 -157q130 -18 202.5 -99.5t80.5 -207.5l-175 -25q-6 96 -59.5 148t-143.5 52q-125 0 -202 -67 t-119.5 -212.5t-42.5 -286.5q0 -265 215 -265z" />
<glyph unicode="&#xa3;" d="M1064 307q-36 -151 -135 -229t-248 -78h-693l29 152q96 46 154 123.5t81 200.5l28 143h-184l25 127h184l54 278q40 203 151.5 297.5t297.5 94.5q146 0 240.5 -62t117.5 -166l-162 -50q-20 64 -75.5 97.5t-127.5 33.5q-113 0 -176 -57t-86 -180l-56 -286h404l-25 -127 h-404l-26 -146q-20 -110 -82 -195t-150 -127h459q102 0 166 42.5t90 137.5z" />
<glyph unicode="&#xa5;" d="M738 702h317l-23 -124h-380l-29 -152h379l-25 -126h-379l-58 -300h-177l59 300h-377l24 126h377l32 152h-379l24 124h317l-283 693h191l244 -641l495 641h203z" />
<glyph unicode="&#xa8;" horiz-adv-x="675" d="M516 1207l34 182h172l-35 -182h-171zM136 1207l34 182h174l-35 -182h-173z" />
<glyph unicode="&#xa9;" horiz-adv-x="1493" d="M1494 700q0 -191 -95.5 -358t-262.5 -262.5t-358 -95.5q-195 0 -362.5 99.5t-260.5 264.5t-93 352q0 191 96 357.5t262.5 262.5t357.5 96q192 0 359 -96.5t262 -262t95 -357.5zM1403 700q0 166 -83.5 310t-229 228t-312.5 84q-166 0 -310.5 -84t-228 -228.5t-83.5 -309.5 q0 -167 84 -311.5t227.5 -228t310.5 -83.5q168 0 313.5 84t228.5 228t83 311zM789 276q-186 0 -289 112t-103 314q0 201 99 310.5t286 109.5q242 0 337 -207l-113 -33q-32 68 -89.5 102t-132.5 34q-126 0 -192.5 -80t-66.5 -236q0 -154 70 -238.5t194 -84.5q77 0 134 37 t97 118l114 -35q-62 -120 -145.5 -171.5t-199.5 -51.5z" />
<glyph unicode="&#xab;" d="M810 140l-265 361l12 62l406 368h157l-6 -37l-406 -368l265 -364l-5 -22h-158zM338 140l-263 361l12 62l404 368h155l-5 -38l-403 -368l262 -364l-5 -21h-157z" />
<glyph unicode="&#xad;" horiz-adv-x="675" d="M104 459l31 159h495l-31 -159h-495z" />
<glyph unicode="&#xae;" horiz-adv-x="1493" d="M1494 700q0 -191 -95.5 -358t-262.5 -262.5t-358 -95.5q-195 0 -362.5 99.5t-260.5 264.5t-93 352q0 191 96 357.5t262.5 262.5t357.5 96q192 0 359 -96.5t262 -262t95 -357.5zM1403 700q0 166 -83.5 310t-229 228t-312.5 84q-166 0 -310.5 -84t-228 -228.5t-83.5 -309.5 q0 -167 84 -311.5t227.5 -228t310.5 -83.5q168 0 313.5 84t228.5 228t83 311zM977 286l-197 333h-159v-333h-126v823h304q141 0 215.5 -62.5t74.5 -172.5q0 -101 -51.5 -162t-135.5 -79l219 -347h-144zM963 872q0 68 -47 104t-127 36h-168v-298h180q79 0 120.5 42t41.5 116z " />
<glyph unicode="&#xb4;" horiz-adv-x="675" d="M173 1189l3 20l251 284h215l-5 -29l-371 -275h-93z" />
<glyph unicode="&#xb8;" horiz-adv-x="675" d="M315 -95q80 -5 120 -40.5t40 -94.5q0 -191 -300 -191q-49 0 -105 7l21 90q48 -6 87 -6q90 0 127.5 22t37.5 66q0 72 -118 72q-44 0 -58 -2l100 172h106z" />
<glyph unicode="&#xbb;" d="M634 140h-157l7 38l406 364l-261 368l4 21h154l263 -368l-11 -62zM163 140h-158l7 38l406 364l-262 368l4 21h157l260 -368l-12 -62z" />
<glyph unicode="&#x2c6;" horiz-adv-x="675" d="M735 1209l-4 -20h-91l-185 167h-2l-262 -167h-115l4 20l283 267h202z" />
<glyph unicode="&#x2da;" horiz-adv-x="675" d="M678 1396q0 -99 -70 -169.5t-169 -70.5t-169.5 70.5t-70.5 169.5q0 100 70.5 169t169.5 69q98 0 168.5 -69.5t70.5 -168.5zM571 1396q0 57 -37.5 95t-94.5 38q-59 0 -96.5 -39.5t-37.5 -93.5q0 -55 37.5 -95.5t96.5 -40.5q57 0 94.5 39.5t37.5 96.5z" />
<glyph unicode="&#x2dc;" horiz-adv-x="675" d="M561 1189q-41 0 -78.5 18.5t-72 40.5t-66 40.5t-62.5 18.5q-99 0 -140 -118h-90q47 150 107 207.5t142 57.5q44 0 81.5 -18t71.5 -40.5t64.5 -41t60.5 -18.5q100 0 140 118h91q-35 -108 -66.5 -158t-76 -78.5t-106.5 -28.5z" />
<glyph unicode="&#x2000;" horiz-adv-x="817" />
<glyph unicode="&#x2001;" horiz-adv-x="1634" />
<glyph unicode="&#x2002;" horiz-adv-x="817" />
<glyph unicode="&#x2003;" horiz-adv-x="1634" />
<glyph unicode="&#x2004;" horiz-adv-x="544" />
<glyph unicode="&#x2005;" horiz-adv-x="408" />
<glyph unicode="&#x2006;" horiz-adv-x="272" />
<glyph unicode="&#x2007;" horiz-adv-x="272" />
<glyph unicode="&#x2008;" horiz-adv-x="204" />
<glyph unicode="&#x2009;" horiz-adv-x="326" />
<glyph unicode="&#x200a;" horiz-adv-x="90" />
<glyph unicode="&#x2010;" horiz-adv-x="675" d="M104 459l31 159h495l-31 -159h-495z" />
<glyph unicode="&#x2011;" horiz-adv-x="675" d="M104 459l31 159h495l-31 -159h-495z" />
<glyph unicode="&#x2012;" horiz-adv-x="675" d="M104 459l31 159h495l-31 -159h-495z" />
<glyph unicode="&#x2013;" d="M-13 446l26 136h1126l-26 -136h-1126z" />
<glyph unicode="&#x2014;" horiz-adv-x="2027" d="M-13 446l26 136h2027l-26 -136h-2027z" />
<glyph unicode="&#x2018;" horiz-adv-x="450" d="M197 942l28 145q18 95 51 167.5t88 140.5h120q-120 -134 -144 -259h88l-38 -194h-193z" />
<glyph unicode="&#x2019;" horiz-adv-x="450" d="M312 942h-122q118 135 144 258h-87l37 195h193l-28 -144q-17 -94 -50 -167.5t-87 -141.5z" />
<glyph unicode="&#x201a;" horiz-adv-x="450" d="M116 -257h-122q118 134 144 257h-88l38 195h193l-28 -144q-17 -92 -49.5 -166t-87.5 -142z" />
<glyph unicode="&#x201c;" horiz-adv-x="675" d="M475 942l28 145q18 92 50 166.5t88 141.5h120q-118 -136 -143 -259h87l-38 -194h-192zM147 942l27 145q18 95 51 167.5t89 140.5h120q-120 -134 -145 -259h88l-37 -194h-193z" />
<glyph unicode="&#x201d;" horiz-adv-x="675" d="M584 942h-120q119 136 144 260h-87l37 193h192l-27 -144q-18 -92 -49 -164t-90 -145zM257 942h-121q118 136 143 260h-87l38 193h193l-28 -144q-18 -94 -50.5 -167.5t-87.5 -141.5z" />
<glyph unicode="&#x201e;" horiz-adv-x="675" d="M378 -259h-120q119 135 144 259h-87l37 193h192l-27 -143q-17 -91 -48 -163.5t-91 -145.5zM51 -259h-121q119 135 143 259h-87l38 193h193l-28 -143q-18 -93 -50 -167t-88 -142z" />
<glyph unicode="&#x2022;" horiz-adv-x="709" d="M645 675q0 -116 -82.5 -197t-195.5 -81q-110 0 -190.5 81t-80.5 197q0 114 80 192.5t191 78.5q114 0 196 -78.5t82 -192.5z" />
<glyph unicode="&#x2026;" horiz-adv-x="2027" d="M1469 0l43 217h192l-43 -217h-192zM829 0l42 217h190l-42 -217h-190zM184 0l43 217h193l-43 -217h-193z" />
<glyph unicode="&#x202f;" horiz-adv-x="326" />
<glyph unicode="&#x2039;" horiz-adv-x="675" d="M347 140l-262 361l12 62l404 368h155l-9 -40l-402 -368l262 -364l-2 -19h-158z" />
<glyph unicode="&#x203a;" horiz-adv-x="675" d="M172 140h-156l8 38l406 364l-262 368l3 21h155l262 -368l-12 -62z" />
<glyph unicode="&#x205f;" horiz-adv-x="408" />
<glyph unicode="&#x20ac;" d="M808 1270q-101 0 -167.5 -37t-120.5 -115t-91 -205h459l-64 -126h-426q-19 -95 -25 -162h459l-65 -128h-400q2 -182 68 -277.5t189 -95.5q105 0 170.5 52t107.5 148l150 -48q-59 -144 -170.5 -219t-268.5 -75q-197 0 -309 134.5t-116 380.5h-169l63 128h111 q4 49 13.5 102t12.5 60h-145l65 126h111q78 254 224 378t349 125q162 0 263.5 -77t129.5 -224l-170 -35q-53 186 -229 190h-9z" />
<glyph unicode="&#x2122;" horiz-adv-x="2027" d="M1674 628v612l-8 -21l-239 -591h-107l-162 409l-76 203l-2 -35v-577h-127v767h188l221 -557l15 -42l73 190l167 409h182v-767h-125zM571 1285v-657h-132v657h-253v110h644v-110h-259z" />
<glyph unicode="&#xe000;" horiz-adv-x="1069" d="M0 1069h1069v-1069h-1069v1069z" />
</font>
</defs>
</svg>
