<?xml version="1.0" standalone="no"?>
<!DOCTYPE svg PUBLIC "-//W3C//DTD SVG 1.1//EN" "http://www.w3.org/Graphics/SVG/1.1/DTD/svg11.dtd" >
<svg xmlns="http://www.w3.org/2000/svg">
<metadata></metadata>
<defs>
<font id="arimobold_italic" horiz-adv-x="1127" >
<font-face units-per-em="2048" ascent="1638" descent="-410" />
<missing-glyph horiz-adv-x="563" />
<glyph horiz-adv-x="2048" />
<glyph horiz-adv-x="2048" />
<glyph unicode="&#xd;" horiz-adv-x="563" />
<glyph unicode=" "  horiz-adv-x="563" />
<glyph unicode="&#x09;" horiz-adv-x="563" />
<glyph unicode="&#xa0;" horiz-adv-x="563" />
<glyph unicode="!" horiz-adv-x="675" d="M419 422h-228l158 973h292zM78 0l52 267h285l-52 -267h-285z" />
<glyph unicode="&#x22;" horiz-adv-x="961" d="M855 889h-216l71 506h272zM434 889h-217l71 506h270z" />
<glyph unicode="#" d="M930 853l-69 -328h213v-148h-243l-82 -377h-154l79 377h-304l-79 -377h-151l78 377h-154v148h186l70 328h-205v147h235l84 381h151l-81 -381h304l83 381h154l-83 -381h163v-147h-195zM474 853l-71 -328h306l69 328h-304z" />
<glyph unicode="$" d="M1069 469q0 -211 -139.5 -324t-418.5 -124l-33 -171h-111l32 173q-174 0 -286 92.5t-124 246.5l259 42q14 -175 193 -175l72 384q-178 44 -274 138t-96 227q0 122 61.5 211.5t184.5 140t276 50.5l24 125l109 -4l-27 -129q161 0 261.5 -78t112.5 -216l-258 -56 q-14 76 -54 116t-99 40l-67 -349q207 -50 304.5 -137.5t97.5 -222.5zM802 409q0 76 -43.5 116t-137.5 62l-73 -358q114 0 184 48.5t70 131.5zM408 996q0 -49 32 -81t120 -61l67 328q-98 0 -158.5 -52.5t-60.5 -133.5z" />
<glyph unicode="%" horiz-adv-x="1802" d="M541 1407q148 0 226.5 -79t78.5 -226q0 -81 -25 -176q-29 -136 -89.5 -225t-143 -135.5t-185.5 -46.5q-141 0 -216.5 83t-75.5 231q0 88 24 172q83 402 406 402zM540 1257q-78 0 -122.5 -59.5t-70 -182.5t-25.5 -196q0 -141 85 -141q78 0 126 64t74 194q28 107 28 184 q0 137 -95 137zM1440 873q149 0 227.5 -78.5t78.5 -226.5q0 -81 -25 -176q-29 -136 -89.5 -225t-143 -135.5t-185.5 -46.5q-141 0 -216.5 83t-75.5 231q0 88 24 172q83 402 405 402zM1439 724q-77 0 -121.5 -59.5t-70 -183t-25.5 -196.5q0 -140 85 -140q78 0 126 63.5 t74 193.5q27 108 27 184q0 138 -95 138zM481 0h-195l1075 1395h197z" />
<glyph unicode="&#x26;" horiz-adv-x="1464" d="M49 350q0 306 421 453q-15 47 -24.5 109.5t-9.5 114.5q0 170 113 273t310 103q158 0 245.5 -67t87.5 -188q0 -90 -45 -159.5t-129.5 -127.5t-288.5 -141q42 -118 79.5 -188.5t90.5 -140.5q132 141 232 361l185 -82q-45 -103 -119 -215t-157 -197q75 -63 183 -63 q62 0 110 16l-39 -201q-65 -22 -138 -22q-172 0 -302 116q-70 -54 -121.5 -76.5t-120 -35t-153.5 -12.5q-199 0 -304.5 95.5t-105.5 274.5zM488 168q62 0 123.5 22.5t106.5 56.5q-123 162 -198 378q-123 -56 -171 -121t-48 -148q0 -84 51.5 -136t135.5 -52zM660 1031 q0 -81 20 -144q141 53 190.5 84.5t74.5 70t25 89.5q0 50 -33 77t-91 27q-84 0 -135 -54.5t-51 -149.5z" />
<glyph unicode="'" horiz-adv-x="482" d="M413 889h-217l72 506h270z" />
<glyph unicode="(" horiz-adv-x="675" d="M865 1469q-519 -495 -519 -1192q0 -395 146 -698h-272q-147 313 -147 714q0 359 131 659t383 517h278z" />
<glyph unicode=")" horiz-adv-x="675" d="M-178 -421q520 508 520 1222q0 168 -40 347.5t-108 320.5h262q160 -317 160 -684q0 -371 -133 -679t-383 -527h-278z" />
<glyph unicode="*" horiz-adv-x="789" d="M568 1124l233 103l67 -195l-247 -61l184 -211l-182 -119l-145 249l-147 -249l-184 121l188 209l-248 61l67 195l237 -103l-18 271h213z" />
<glyph unicode="+" horiz-adv-x="1184" d="M742 563v-404h-223v404h-395v222h395v404h223v-404h398v-222h-398z" />
<glyph unicode="," horiz-adv-x="563" d="M163 -314h-183q77 77 128 159.5t65 154.5h-127l58 302h286l-46 -237q-23 -118 -65.5 -209t-115.5 -170z" />
<glyph unicode="-" horiz-adv-x="675" d="M55 405l47 241h515l-47 -241h-515z" />
<glyph unicode="." horiz-adv-x="563" d="M46 0l58 302h286l-58 -302h-286z" />
<glyph unicode="/" horiz-adv-x="563" d="M-75 -41l581 1510h236l-578 -1510h-239z" />
<glyph unicode="0" d="M717 1416q391 0 391 -462q0 -113 -38 -296q-142 -678 -597 -678q-198 0 -293.5 116.5t-95.5 352.5q0 138 44 341t122.5 342.5t193 211.5t273.5 72zM492 199q116 0 185.5 106.5t115 343t45.5 318.5q0 231 -151 231q-85 0 -138 -46.5t-90 -150t-71 -306t-34 -284.5 q0 -212 138 -212z" />
<glyph unicode="1" d="M33 0l42 229h346l177 911l-377 -211l46 239l392 227h268l-228 -1166h320l-44 -229h-942z" />
<glyph unicode="2" d="M-32 0l37 193q48 84 111.5 154.5t138.5 134t254 188.5q146 103 199.5 156.5t83 109t29.5 116.5q0 142 -161 142q-87 0 -140.5 -43.5t-79.5 -138.5l-264 58q53 177 179.5 261.5t324.5 84.5q208 0 317.5 -87t109.5 -257q0 -95 -41.5 -181t-125.5 -166.5t-271 -206.5 q-130 -89 -208 -156.5t-121 -132.5h647l-44 -229h-975z" />
<glyph unicode="3" d="M530 821q147 0 220 57.5t73 161.5q0 72 -38.5 113t-117.5 41q-184 0 -234 -182l-265 51q101 353 510 353q201 0 314 -90t113 -251q0 -154 -96 -248t-262 -109l-1 -4q134 -21 204 -98.5t70 -201.5q0 -123 -64.5 -223.5t-181.5 -155.5t-268 -55q-224 0 -349 92t-141 268 l279 37q11 -89 62.5 -131t161.5 -42q103 0 161 55.5t58 152.5q0 184 -218 184h-106l43 225h73z" />
<glyph unicode="4" d="M865 283l-53 -283h-266l54 283h-634l41 205l710 907h366l-176 -904h186l-42 -208h-186zM792 1194q-46 -77 -116 -168l-420 -535h386l100 519q18 89 50 184z" />
<glyph unicode="5" d="M313 1395h838l-42 -229h-588l-86 -330q17 15 41.5 31t55 29t69.5 21t86 8q165 0 265.5 -112t100.5 -300q0 -160 -69.5 -281t-200.5 -186.5t-302 -65.5q-197 0 -315 87.5t-146 258.5l280 44q18 -92 65 -129t140 -37q124 0 194.5 75.5t70.5 201.5q0 104 -49 161.5 t-138 57.5q-122 0 -200 -90h-271z" />
<glyph unicode="6" d="M528 -20q-208 0 -321 132t-113 370q0 266 82.5 481.5t230.5 334t331 118.5q178 0 280.5 -83t119.5 -238l-263 -41q-14 73 -50.5 107.5t-101.5 34.5q-114 0 -198 -114t-123 -343q52 71 133 115t183 44q162 0 255.5 -99t93.5 -271q0 -150 -69 -276.5t-192.5 -199 t-277.5 -72.5zM365 425q0 -104 48.5 -165.5t138.5 -61.5q106 0 169 80.5t63 215.5q0 96 -47 147.5t-129 51.5q-66 0 -122.5 -33.5t-88.5 -95t-32 -139.5z" />
<glyph unicode="7" d="M186 1395h1021l-44 -221l-160 -192q-257 -303 -370.5 -518t-165.5 -464h-295q35 180 103 332t160.5 290.5t206.5 271t242 272.5h-742z" />
<glyph unicode="8" d="M700 1415q197 0 311 -90.5t114 -244.5q0 -139 -85 -232t-228 -112l-1 -4q110 -33 169 -113t59 -191q0 -206 -147.5 -327t-403.5 -121q-220 0 -340.5 99.5t-120.5 276.5q0 146 93.5 243t261.5 131v4q-91 40 -138 120t-47 187q0 176 135.5 275t367.5 99zM642 832 q93 0 146.5 58.5t53.5 162.5q0 167 -170 167q-94 0 -147.5 -55t-53.5 -155q0 -86 44.5 -132t126.5 -46zM555 634q-114 0 -177.5 -70.5t-63.5 -190.5q0 -94 53 -145.5t148 -51.5q107 0 172 71.5t65 192.5q0 94 -52.5 144t-144.5 50z" />
<glyph unicode="9" d="M809 646q-65 -76 -138 -112t-176 -36q-159 0 -254 106t-95 280q0 148 70 271t194.5 192t274.5 69q198 0 316 -127.5t118 -341.5q0 -170 -48 -360.5t-134.5 -328.5t-203 -208t-259.5 -70q-180 0 -290 85t-136 243l271 47q28 -155 174 -155q231 0 316 446zM846 999 q0 86 -49.5 142.5t-125.5 56.5q-113 0 -178 -83t-65 -224q0 -84 47.5 -136t129.5 -52q113 0 177 79t64 217z" />
<glyph unicode=":" horiz-adv-x="675" d="M233 744l54 280h285l-54 -280h-285zM88 0l55 278h285l-55 -278h-285z" />
<glyph unicode=";" horiz-adv-x="675" d="M233 744l54 280h285l-54 -280h-285zM205 -314h-182q77 77 128 159.5t65 154.5h-128l55 278h285l-42 -213q-23 -118 -65 -208.5t-116 -170.5z" />
<glyph unicode="&#x3c;" horiz-adv-x="1184" d="M123 511v319l1016 387v-226l-824 -322l824 -321v-224z" />
<glyph unicode="=" horiz-adv-x="1184" d="M122 834v220h1016v-220h-1016zM122 288v219h1016v-219h-1016z" />
<glyph unicode="&#x3e;" horiz-adv-x="1184" d="M123 124v224l823 321l-823 322v226l1016 -387v-319z" />
<glyph unicode="?" horiz-adv-x="1238" d="M738 1416q211 0 335 -93t124 -259q0 -89 -37 -159t-104.5 -130t-222.5 -146q-78 -51 -106 -77.5t-45 -57.5t-23 -72h-264q14 76 44.5 133t78.5 103t165 118q68 43 113.5 75.5t72 62.5t37.5 61t11 69q0 63 -47.5 104t-147.5 41q-225 0 -276 -191l-264 40q116 378 556 378z M306 0l51 267h287l-52 -267h-286z" />
<glyph unicode="@" horiz-adv-x="1977" d="M1892 747q0 -180 -63 -328.5t-174 -232t-239 -83.5q-91 0 -140 45t-49 125q0 37 6 67h-6q-50 -104 -147.5 -170.5t-199.5 -66.5q-155 0 -241 100.5t-86 280.5q0 161 64 303t177.5 222.5t253.5 80.5q193 0 262 -172h6l38 150h155l-116 -501q-37 -170 -37 -237 q0 -50 23.5 -70.5t54.5 -20.5q79 0 151 68.5t114 184t42 253.5q0 174 -75.5 307t-218 205.5t-331.5 72.5q-238 0 -419 -104t-284.5 -300t-103.5 -440q0 -193 78.5 -339t221 -220.5t334.5 -74.5q292 0 584 153l61 -121q-166 -94 -325 -134.5t-326 -40.5q-234 0 -412 94.5 t-277.5 273t-99.5 409.5q0 280 125.5 507t346.5 351.5t494 124.5q240 0 416.5 -89.5t269 -253t92.5 -379.5zM1251 743q0 95 -58.5 154t-152.5 59q-93 0 -166.5 -61.5t-114.5 -175t-41 -233.5q0 -113 48 -178t147 -65q65 0 127 41.5t110.5 120t74.5 179t26 159.5z" />
<glyph unicode="A" horiz-adv-x="1464" d="M1029 0l-55 356h-531l-194 -356h-291l780 1395h344l236 -1395h-289zM867 1180q-21 -63 -97 -210l-210 -394h391l-66 448q-18 133 -18 156z" />
<glyph unicode="B" horiz-adv-x="1464" d="M307 1395h578q249 0 376.5 -81.5t127.5 -241.5q0 -135 -81.5 -222t-239.5 -119q135 -23 210.5 -105t75.5 -199q0 -209 -155 -318t-465 -109h-698zM489 833h291q173 0 246 45.5t73 149.5q0 79 -56.5 114.5t-189.5 35.5h-298zM369 217h325q207 0 287 50t80 166 q0 89 -67 136.5t-220 47.5h-327z" />
<glyph unicode="C" horiz-adv-x="1464" d="M397 567q0 -171 84.5 -264.5t242.5 -93.5q263 0 414 255l224 -116q-208 -368 -658 -368q-189 0 -326 71.5t-208 203.5t-71 308q0 250 104 446.5t290.5 301.5t424.5 105q227 0 373 -97.5t197 -290.5l-271 -71q-29 106 -110 167.5t-198 61.5q-240 0 -376 -166.5 t-136 -452.5z" />
<glyph unicode="D" horiz-adv-x="1464" d="M727 1395q329 0 504.5 -153.5t175.5 -442.5q0 -234 -98 -413t-284 -282.5t-417 -103.5h-572l271 1395h420zM371 226h228q158 0 280.5 67.5t188.5 195.5t66 297q0 187 -104.5 285t-300.5 98h-175z" />
<glyph unicode="E" horiz-adv-x="1352" d="M36 0l270 1395h1097l-44 -226h-805l-68 -350h745l-44 -226h-744l-72 -367h846l-45 -226h-1136z" />
<glyph unicode="F" horiz-adv-x="1238" d="M554 1169l-84 -431h662l-44 -226h-661l-100 -512h-291l270 1395h976l-44 -226h-684z" />
<glyph unicode="G" horiz-adv-x="1577" d="M733 -19q-297 0 -465.5 157t-168.5 439q0 248 103.5 440t293 295.5t437.5 103.5q225 0 377 -102t205 -285l-279 -78q-29 112 -111.5 173.5t-207.5 61.5q-158 0 -276.5 -74t-182 -211t-63.5 -315q0 -176 94.5 -276.5t266.5 -100.5q107 0 208 25.5t173 69.5l45 226h-339 l39 206h608l-104 -563q-154 -106 -308.5 -149t-344.5 -43z" />
<glyph unicode="H" horiz-adv-x="1464" d="M946 0l117 598h-619l-117 -598h-291l270 1395h292l-108 -555h620l108 555h281l-271 -1395h-282z" />
<glyph unicode="I" horiz-adv-x="563" d="M36 0l270 1395h292l-271 -1395h-291z" />
<glyph unicode="J" d="M475 -20q-188 0 -300.5 95t-149.5 300l264 58q46 -224 205 -224q53 0 90 23.5t60.5 67.5t41.5 136l142 730h-279l44 229h569l-191 -976q-44 -229 -163 -334t-333 -105z" />
<glyph unicode="K" horiz-adv-x="1464" d="M985 0l-351 634l-209 -122l-100 -512h-289l270 1395h292l-129 -633l753 633h365l-740 -610l461 -785h-323z" />
<glyph unicode="L" horiz-adv-x="1238" d="M36 0l270 1395h292l-227 -1169h749l-45 -226h-1039z" />
<glyph unicode="M" horiz-adv-x="1688" d="M1194 0l170 875q26 129 73 319l-68 -150q-78 -172 -113 -236l-408 -808h-207l-94 811q-30 288 -39 383q-28 -242 -43 -316l-170 -878h-259l271 1395h391l87 -780l25 -273q35 79 66 143t460 910h389l-272 -1395h-259z" />
<glyph unicode="N" horiz-adv-x="1464" d="M875 0l-370 1120q-23 -161 -38 -237l-172 -883h-259l271 1395h346l374 -1130l12 81q10 83 28 173l172 876h260l-271 -1395h-353z" />
<glyph unicode="O" horiz-adv-x="1577" d="M919 1416q290 0 457 -154t167 -420q0 -244 -104 -445.5t-291.5 -309t-427.5 -107.5q-191 0 -332 71.5t-215 204.5t-74 311q0 233 104.5 434.5t289.5 308t426 106.5zM905 1185q-161 0 -273.5 -74t-174 -223.5t-61.5 -312.5q0 -182 89 -273.5t249 -91.5q159 0 272 74 t174.5 220.5t61.5 314.5q0 174 -86.5 270t-250.5 96z" />
<glyph unicode="P" horiz-adv-x="1352" d="M842 1395q243 0 378 -111t135 -307q0 -223 -152 -354.5t-406 -131.5h-373l-97 -491h-291l270 1395h536zM466 716h286q154 0 230.5 57.5t76.5 187.5q0 101 -63 154t-182 53h-260z" />
<glyph unicode="Q" horiz-adv-x="1577" d="M919 1416q290 0 457 -154t167 -420q0 -104 -19 -199q-27 -134 -84 -244.5t-140 -194t-190.5 -137.5t-236.5 -75q19 -97 64 -140.5t133 -43.5q79 0 149 14l-45 -193q-71 -25 -167 -25q-195 0 -300.5 93t-128.5 294q-117 19 -206.5 69t-150.5 124.5t-91.5 171.5t-30.5 211 q0 233 104.5 434.5t289.5 308t426 106.5zM905 1185q-161 0 -273.5 -74t-174 -223.5t-61.5 -312.5q0 -182 89 -273.5t249 -91.5q159 0 272 74t174.5 220.5t61.5 314.5q0 174 -86.5 270t-250.5 96z" />
<glyph unicode="R" horiz-adv-x="1464" d="M1000 0l-228 529h-342l-102 -529h-292l271 1395h644q158 0 270.5 -48.5t170.5 -138.5t58 -212q0 -163 -107 -277t-292 -142l272 -577h-323zM863 756q144 0 217.5 58t73.5 165q0 92 -62.5 140.5t-176.5 48.5h-361l-80 -412h389z" />
<glyph unicode="S" horiz-adv-x="1352" d="M594 -20q-264 0 -403 93.5t-166 287.5l286 49q21 -110 92.5 -160.5t210.5 -50.5q341 0 341 197q0 79 -59 125t-236 91q-182 48 -269.5 100.5t-133.5 128.5t-46 186q0 175 155.5 282t411.5 107q236 0 378.5 -86t175.5 -250l-286 -66q-21 89 -94 142t-190 53 q-122 0 -192.5 -46t-70.5 -126q0 -47 25.5 -79.5t75 -57t196.5 -63.5q157 -44 232.5 -82t120.5 -85.5t68.5 -109t23.5 -141.5q0 -214 -164 -326.5t-483 -112.5z" />
<glyph unicode="T" horiz-adv-x="1238" d="M886 1169l-228 -1169h-292l228 1169h-450l43 226h1194l-44 -226h-451z" />
<glyph unicode="U" horiz-adv-x="1464" d="M681 209q163 0 248 75t118 252l167 859h292l-170 -870q-54 -278 -217.5 -411.5t-453.5 -133.5q-261 0 -404 116.5t-143 330.5q0 43 7.5 104t15.5 98l146 766h292l-151 -802q-18 -86 -18 -170q0 -102 72 -158t199 -56z" />
<glyph unicode="V" horiz-adv-x="1352" d="M730 0h-336l-225 1395h302l113 -896q16 -146 22 -263q46 105 74.5 165t508.5 994h305z" />
<glyph unicode="W" horiz-adv-x="1913" d="M1427 0h-347l-27 804l-4 218l-1 83q-59 -159 -90 -237t-370 -868h-351l-89 1395h278l35 -807q7 -166 7 -342l57 142l75 183l351 824h313l42 -1149q27 72 78 202t386 947h288z" />
<glyph unicode="X" horiz-adv-x="1352" d="M218 1395h306l221 -466l398 466h310l-594 -670l364 -725h-304l-251 527l-450 -527h-311l645 729z" />
<glyph unicode="Y" horiz-adv-x="1352" d="M717 0h-291l111 572l-367 823h289l257 -599l469 599h320l-677 -823z" />
<glyph unicode="Z" horiz-adv-x="1238" d="M1071 0h-1119l40 207l918 959h-657l45 229h1004l-40 -203l-920 -963h774z" />
<glyph unicode="[" horiz-adv-x="675" d="M-53 -421l366 1890h536l-36 -188h-273l-294 -1513h273l-37 -189h-535z" />
<glyph unicode="\" horiz-adv-x="563" d="M286 -41l-176 1511h236l181 -1511h-241z" />
<glyph unicode="]" horiz-adv-x="675" d="M-172 -421l36 189h275l294 1513h-276l37 188h537l-368 -1890h-535z" />
<glyph unicode="^" horiz-adv-x="1184" d="M952 509l-322 744l-321 -744h-225l387 886h319l389 -886h-227z" />
<glyph unicode="_" d="M-119 -248v78h1165v-78h-1165z" />
<glyph unicode="`" horiz-adv-x="675" d="M590 1171l-304 273l8 43h255l193 -285l-5 -31h-147z" />
<glyph unicode="a" d="M883 -10q-99 0 -152.5 41.5t-53.5 110.5q0 36 5 63h-6q-83 -129 -164 -177t-198 -48q-139 0 -221.5 83t-82.5 212q0 183 126 276.5t409 98.5l190 3q20 94 20 130q0 127 -125 127q-93 0 -138.5 -36t-62.5 -105l-261 31q34 142 152.5 216.5t314.5 74.5q205 0 300.5 -72.5 t95.5 -219.5q0 -37 -24 -155l-70 -350q-8 -45 -8 -71q0 -24 9.5 -37t22.5 -19t26 -7.5t20 -1.5q30 0 61 7l-14 -153q-41 -16 -83.5 -19t-87.5 -3zM704 498h-160q-116 -2 -183 -47.5t-67 -128.5q0 -70 39 -109t106 -39q82 0 149 64t94 169z" />
<glyph unicode="b" horiz-adv-x="1238" d="M846 1091q158 0 246 -93.5t88 -256.5v-14q0 -186 -61.5 -376t-172.5 -280.5t-284 -90.5q-123 0 -200.5 51.5t-109.5 144.5h-2l-27 -110l-20 -66h-268q5 15 19 81.5t29 139.5l244 1248h278l-83 -423q-28 -142 -32 -142h4q55 83 144 135t208 52zM728 898q-125 0 -200 -87 t-108 -263q-17 -92 -17 -151q0 -106 52.5 -166t146.5 -60q100 0 156.5 62t94 210t37.5 244q0 104 -35 157.5t-127 53.5z" />
<glyph unicode="c" d="M531 171q82 0 135.5 52t84.5 154l269 -49q-106 -348 -505 -348q-218 0 -335.5 111.5t-117.5 309.5q0 193 78.5 362.5t208.5 248.5t324 79q187 0 299 -94.5t126 -262.5l-281 -23q-11 189 -166 189q-106 0 -165.5 -73t-108.5 -258q-23 -114 -23 -166q0 -232 177 -232z" />
<glyph unicode="d" horiz-adv-x="1238" d="M742 158q-71 -92 -152.5 -135.5t-201.5 -43.5q-152 0 -241.5 101t-89.5 270q0 190 63.5 371t178 275.5t275.5 94.5q254 0 311 -196h5q2 20 8 59.5t18 100.5l83 414h274l-235 -1240q-20 -111 -29 -229h-278q0 62 14 158h-3zM510 170q80 0 137.5 34.5t98 105t64.5 177.5 t24 187q0 119 -46.5 173t-140.5 54q-101 0 -164.5 -68.5t-97.5 -200t-34 -243.5q0 -219 159 -219z" />
<glyph unicode="e" d="M354 471q-7 -37 -7 -88q0 -105 46.5 -161t136.5 -56q145 0 211 168l242 -74q-74 -157 -184 -218.5t-288 -61.5q-211 0 -330 114.5t-119 319.5t71.5 359t202.5 236t304 82q206 0 318.5 -106.5t112.5 -300.5q0 -98 -24 -213h-693zM814 656l3 56q0 106 -49 154.5t-128 48.5 q-96 0 -160.5 -66t-92.5 -193h427z" />
<glyph unicode="f" horiz-adv-x="675" d="M523 883l-173 -883h-277l173 883h-157l37 188h156l22 112q30 153 123.5 219.5t263.5 66.5q72 0 153 -17l-35 -179q-11 2 -42.5 6t-52.5 4q-67 0 -96.5 -31.5t-42.5 -96.5l-16 -84h211l-36 -188h-211z" />
<glyph unicode="g" horiz-adv-x="1238" d="M427 -421q-197 0 -303 68.5t-131 211.5l280 30q27 -126 186 -126q109 0 169.5 58.5t94.5 205.5q19 95 30 172h-2q-62 -88 -109 -126.5t-106 -59.5t-135 -21q-153 0 -245 99t-92 261q0 199 63 382t173.5 269.5t279.5 86.5q117 0 201 -55.5t111 -150.5h2q6 29 24.5 104 t22.5 83h263l-19 -82l-30 -145l-163 -834q-47 -231 -180.5 -331t-384.5 -100zM838 679q0 103 -51.5 162t-144.5 59q-76 0 -125 -31.5t-83 -102.5t-56.5 -186.5t-22.5 -187.5q0 -197 172 -197q88 0 160 66.5t111.5 180.5t39.5 237z" />
<glyph unicode="h" horiz-adv-x="1238" d="M595 1469l-78 -401l-39 -180h3q74 103 164 152.5t205 49.5q151 0 227 -72.5t76 -208.5q0 -25 -7 -79t-13 -84l-126 -646h-276l116 589q26 123 26 163q0 128 -150 128q-100 0 -185.5 -81t-106.5 -199l-117 -600h-279l283 1469h277z" />
<glyph unicode="i" horiz-adv-x="563" d="M279 1264l41 205h278l-41 -205h-278zM35 0l208 1071h278l-209 -1071h-277z" />
<glyph unicode="j" horiz-adv-x="563" d="M280 1264l40 205h278l-40 -205h-278zM-53 -421q-95 0 -165 19l36 186l57 -4q67 0 98 34.5t49 126.5l221 1130h278l-234 -1198q-29 -142 -115.5 -218t-224.5 -76z" />
<glyph unicode="k" d="M721 0l-186 492l-139 -74l-84 -418h-277l285 1469h278l-165 -841l460 443h319l-469 -418l273 -653h-295z" />
<glyph unicode="l" horiz-adv-x="563" d="M35 0l285 1469h278l-286 -1469h-277z" />
<glyph unicode="m" horiz-adv-x="1802" d="M1309 883q-90 0 -156.5 -76t-92.5 -206l-118 -601h-276l122 629q17 90 17 134q0 120 -125 120q-87 0 -155 -74.5t-94 -210.5l-117 -598h-279l164 842q20 95 39 229h269q0 -11 -10.5 -76.5t-17.5 -106.5h3q76 115 150 158.5t175 43.5q123 0 194 -59t85 -171 q79 124 161 177t189 53q137 0 210 -72.5t73 -208.5q0 -64 -21 -163l-127 -646h-276l121 621q18 89 18 137v5q-3 120 -125 120z" />
<glyph unicode="n" horiz-adv-x="1238" d="M731 0l116 589q26 123 26 163q0 128 -150 128q-100 0 -185.5 -81t-106.5 -199l-117 -600h-279l164 842q16 79 38 229h265q0 -9 -9.5 -83t-14.5 -100h3q74 103 164 152.5t205 49.5q151 0 227 -72.5t76 -208.5q0 -25 -7 -79t-13 -84l-126 -646h-276z" />
<glyph unicode="o" horiz-adv-x="1238" d="M1173 676q0 -205 -80.5 -364.5t-228.5 -245.5t-334 -86q-216 0 -342 116.5t-126 318.5q0 199 79 352.5t224.5 238t331.5 84.5q233 0 354.5 -108.5t121.5 -305.5zM882 655q0 245 -206 245q-113 0 -179.5 -59.5t-104.5 -180.5t-38 -233q0 -257 206 -257q111 0 176 56 t102 170t44 259z" />
<glyph unicode="p" horiz-adv-x="1238" d="M721 898q-125 0 -200 -87t-108 -263q-17 -92 -17 -151q0 -106 52.5 -166t146.5 -60q101 0 159.5 63.5t92 204t33.5 248.5q0 105 -38 158t-121 53zM488 904q71 99 153 143t199 44q157 0 245 -93.5t88 -256.5q0 -200 -61.5 -390t-172.5 -280.5t-284 -90.5 q-123 0 -200.5 51.5t-108.5 144.5h-2q-7 -61 -32 -186l-79 -411h-278l241 1246l20 109l19 137h272q0 -14 -7.5 -76.5t-15.5 -90.5h4z" />
<glyph unicode="q" horiz-adv-x="1238" d="M889 894q25 122 47 177h267q-8 -27 -30 -131.5t-264 -1360.5h-278l84 428l35 154h-4q-74 -97 -157.5 -139.5t-198.5 -42.5q-150 0 -241 97t-91 269q0 194 63.5 375t178.5 276t274 95q129 0 199 -45t111 -152h5zM513 170q126 0 200 88t106 264q16 87 16 151 q0 228 -173 228q-109 0 -174 -64t-100.5 -198.5t-35.5 -256.5q0 -103 40.5 -157.5t120.5 -54.5z" />
<glyph unicode="r" horiz-adv-x="789" d="M836 844q-69 15 -113 15q-122 0 -199 -86t-111 -264l-100 -509h-278l159 822q24 118 42 249h265l-22 -170l-8 -49h4q72 133 142.5 186t161.5 53q47 0 102 -14z" />
<glyph unicode="s" d="M990 331q0 -173 -127 -262t-371 -89q-199 0 -314 70.5t-155 217.5l248 36q21 -74 76.5 -107t164.5 -33q108 0 164 35t56 100q0 51 -41.5 78.5t-180.5 57.5q-197 44 -278 123t-81 203q0 159 124.5 243t355.5 84q204 0 304 -70t123 -215l-248 -29q-17 68 -65.5 99 t-132.5 31q-203 0 -203 -119q0 -33 19.5 -54.5t56.5 -37.5t176 -49q181 -40 255 -115.5t74 -197.5z" />
<glyph unicode="t" horiz-adv-x="675" d="M372 -16q-123 0 -190 58t-67 165q0 70 16 155l101 521h-147l37 188h160l136 252h174l-48 -252h200l-34 -188h-203l-103 -530q-11 -55 -11 -88q0 -45 23.5 -67.5t62.5 -22.5q32 0 107 13l-32 -180q-80 -24 -182 -24z" />
<glyph unicode="u" horiz-adv-x="1238" d="M507 1071l-117 -589q-26 -122 -26 -163q0 -128 151 -128q100 0 184.5 80t107.5 200l117 600h279l-164 -842q-16 -79 -38 -229h-265q0 9 9 83t14 100h-3q-75 -106 -164.5 -154t-204.5 -48q-150 0 -226.5 72.5t-76.5 208.5q0 25 7 80t14 83l126 646h276z" />
<glyph unicode="v" d="M616 0h-333l-174 1071h286l70 -599q4 -29 13 -136t9 -130q60 141 121 263l313 602h299z" />
<glyph unicode="w" horiz-adv-x="1577" d="M1195 0h-294l-43 653l-5 228q-52 -140 -94 -230l-299 -651h-294l-68 1071h255l14 -689v-130l27 68l52 122l291 629h298l41 -629l5 -190l53 131l288 688h263z" />
<glyph unicode="x" d="M717 0l-184 379l-324 -379h-298l503 556l-276 515h289l171 -343l293 343h305l-478 -520l291 -551h-292z" />
<glyph unicode="y" d="M87 -421q-96 0 -171 18l37 194q40 -9 87 -9q77 0 136 45.5t117 148.5l28 48l-210 1047h288l70 -492q6 -31 21.5 -176.5t13.5 -154.5l17 37l137 290l257 496h297l-648 -1127q-106 -166 -172.5 -233t-139.5 -99.5t-165 -32.5z" />
<glyph unicode="z" horiz-adv-x="1013" d="M-10 0l38 197l607 673h-436l40 201h761l-39 -199l-604 -669h522l-39 -203h-850z" />
<glyph unicode="{" horiz-adv-x="789" d="M384 -421q-118 0 -185.5 60t-67.5 161q0 44 11 100l60 305q7 35 7 67q0 153 -190 157l37 190q229 4 272 224l66 335q29 145 111.5 218t235.5 73h192l-37 -188h-75q-81 0 -124 -46t-64 -157l-60 -307q-19 -93 -88 -159t-165 -85l-1 -4q73 -19 117 -69t44 -124 q0 -29 -5 -52l-64 -330q-9 -42 -9 -76q0 -52 32.5 -78t88.5 -26h79l-37 -189h-181z" />
<glyph unicode="|" horiz-adv-x="567" d="M189 -421v1890h259v-1890h-259z" />
<glyph unicode="}" horiz-adv-x="789" d="M395 1470q118 0 185.5 -60t67.5 -161q0 -45 -10 -100l-61 -305q-7 -32 -7 -67q0 -76 46 -115t144 -41l-37 -190q-117 -2 -183.5 -58t-88.5 -168l-66 -334q-31 -150 -114.5 -221t-231.5 -71h-192l36 188h75q82 0 124.5 46t64.5 157l59 307q19 94 88 160t165 86l1 3 q-74 18 -117.5 69t-43.5 125q0 28 5 51l64 330q9 44 9 76q0 53 -32.5 78.5t-88.5 25.5h-79l37 189h181z" />
<glyph unicode="~" horiz-adv-x="1184" d="M880 511q-74 0 -146 20.5t-146 46.5q-134 47 -219 47q-70 0 -129 -21.5t-123 -65.5v210q112 84 268 84q79 0 155 -22t149 -48q133 -46 210 -46q133 0 245 91v-217q-63 -44 -121 -61.5t-143 -17.5z" />
<glyph unicode="&#xa2;" d="M544 325q82 0 135.5 52t84.5 154l269 -50q-52 -167 -166.5 -251t-288.5 -95l-32 -166h-160l32 173q-164 25 -253.5 132t-89.5 280q0 104 18 178q55 241 188 370.5t351 139.5l30 153h161l-32 -159q141 -23 225 -115t95 -234l-281 -23q-11 189 -166 189 q-106 0 -165.5 -72.5t-108.5 -257.5q-23 -114 -23 -167q0 -231 177 -231z" />
<glyph unicode="&#xa3;" d="M1093 359q-42 -177 -154.5 -268t-282.5 -91h-706l38 203q93 38 149.5 103.5t77.5 169.5l25 122h-186l32 168h176l51 258q38 205 147 298.5t304 93.5q175 0 278 -79t120 -218l-242 -48q-15 83 -56 119.5t-112 36.5q-77 0 -118.5 -45.5t-61.5 -149.5l-52 -266h283l-33 -168 h-283l-27 -125q-41 -193 -229 -265h404q94 0 152.5 44.5t82.5 145.5z" />
<glyph unicode="&#xa5;" d="M789 684h273l-27 -144h-335l-32 -161h335l-28 -145h-334l-46 -234h-269l45 234h-332l27 145h334l32 161h-334l28 144h273l-222 711h281l153 -590l386 590h291z" />
<glyph unicode="&#xa8;" horiz-adv-x="675" d="M562 1187l43 217h215l-43 -217h-215zM134 1187l41 217h212l-42 -217h-211z" />
<glyph unicode="&#xa9;" horiz-adv-x="1493" d="M1493 700q0 -191 -95.5 -358t-262.5 -262.5t-358 -95.5q-195 0 -362.5 99.5t-260.5 264.5t-93 352q0 191 96 357.5t262.5 262.5t357.5 96q192 0 359 -96.5t262 -262t95 -357.5zM1382 700q0 161 -81 300t-221.5 220.5t-302.5 81.5q-155 0 -293.5 -77.5t-223.5 -217.5 t-85 -307q0 -161 81 -302t220 -222t301 -81q163 0 303.5 81t221 222t80.5 302zM790 282q-191 0 -295.5 110t-104.5 310q0 201 101 306t290 105q129 0 215.5 -55.5t134.5 -171.5l-155 -41q-26 61 -74 94.5t-116 33.5q-108 0 -163 -69t-55 -202q0 -134 58.5 -207t163.5 -73 q65 0 115.5 36.5t78.5 104.5l158 -46q-57 -124 -143 -179.5t-209 -55.5z" />
<glyph unicode="&#xab;" d="M715 138l-190 357l14 70l319 364h237l-6 -41l-326 -362l186 -350l-5 -38h-229zM261 138l-190 357l14 70l320 364h237l-6 -41l-326 -362l186 -350l-5 -38h-230z" />
<glyph unicode="&#xad;" horiz-adv-x="675" d="M55 405l47 241h515l-47 -241h-515z" />
<glyph unicode="&#xae;" horiz-adv-x="1493" d="M1493 700q0 -191 -95.5 -358t-262.5 -262.5t-358 -95.5q-195 0 -362.5 99.5t-260.5 264.5t-93 352q0 191 96 357.5t262.5 262.5t357.5 96q192 0 359 -96.5t262 -262t95 -357.5zM1382 700q0 161 -81 300t-221.5 220.5t-302.5 81.5q-155 0 -293.5 -77.5t-223.5 -217.5 t-85 -307q0 -161 81 -302t220 -222t301 -81q163 0 303.5 81t221 222t80.5 302zM943 294l-176 310h-116v-310h-176v807h327q151 0 226.5 -64t75.5 -176q0 -93 -47.5 -151.5t-124.5 -82.5l210 -333h-199zM926 859q0 57 -37.5 86.5t-105.5 29.5h-132v-243h143q65 0 98.5 35 t33.5 92z" />
<glyph unicode="&#xb4;" horiz-adv-x="675" d="M252 1171l6 31l245 285h274l-8 -43l-372 -273h-145z" />
<glyph unicode="&#xb8;" horiz-adv-x="675" d="M192 -421q-49 0 -105 6l29 116q41 -7 81 -7q80 0 116.5 17.5t36.5 58.5q0 63 -108 63h-25l-28 -2l97 169h140l-48 -82q69 -1 112.5 -33.5t43.5 -97.5q0 -96 -83.5 -152t-258.5 -56z" />
<glyph unicode="&#xbb;" d="M418 929l190 -358l-14 -70l-320 -363h-236l6 40l325 363l-186 349l5 39h230zM871 929l190 -358l-14 -70l-319 -363h-237l6 40l326 363l-186 349l5 39h229z" />
<glyph unicode="&#x2c6;" horiz-adv-x="675" d="M810 1199l-5 -28h-149l-164 190h-4l-245 -190h-168l5 28l317 315h227z" />
<glyph unicode="&#x2da;" horiz-adv-x="675" d="M728 1376q0 -104 -73 -177.5t-179 -73.5t-178.5 73.5t-72.5 177.5t73.5 178t177.5 74t178 -74t74 -178zM602 1376q0 51 -36 87.5t-90 36.5q-50 0 -87 -35.5t-37 -88.5q0 -55 37 -91t87 -36q53 0 89.5 37t36.5 90z" />
<glyph unicode="&#x2dc;" horiz-adv-x="675" d="M618 1171q-44 0 -84 19t-77 42t-71 42t-63 19q-42 0 -69 -25.5t-52 -96.5h-135q39 157 108 223.5t171 66.5q44 0 85 -18.5t77.5 -42t69.5 -42.5t62 -19q42 0 70 28t51 94h134q-39 -156 -107.5 -223t-169.5 -67z" />
<glyph unicode="&#x2000;" horiz-adv-x="814" />
<glyph unicode="&#x2001;" horiz-adv-x="1628" />
<glyph unicode="&#x2002;" horiz-adv-x="814" />
<glyph unicode="&#x2003;" horiz-adv-x="1628" />
<glyph unicode="&#x2004;" horiz-adv-x="542" />
<glyph unicode="&#x2005;" horiz-adv-x="407" />
<glyph unicode="&#x2006;" horiz-adv-x="271" />
<glyph unicode="&#x2007;" horiz-adv-x="271" />
<glyph unicode="&#x2008;" horiz-adv-x="203" />
<glyph unicode="&#x2009;" horiz-adv-x="325" />
<glyph unicode="&#x200a;" horiz-adv-x="90" />
<glyph unicode="&#x2010;" horiz-adv-x="675" d="M55 405l47 241h515l-47 -241h-515z" />
<glyph unicode="&#x2011;" horiz-adv-x="675" d="M55 405l47 241h515l-47 -241h-515z" />
<glyph unicode="&#x2012;" horiz-adv-x="675" d="M55 405l47 241h515l-47 -241h-515z" />
<glyph unicode="&#x2013;" d="M44 444l31 200h1004l-32 -200h-1003z" />
<glyph unicode="&#x2014;" horiz-adv-x="2027" d="M-19 444l38 200h2027l-38 -200h-2027z" />
<glyph unicode="&#x2018;" horiz-adv-x="563" d="M187 823l38 193q23 122 67 212.5t114 166.5h181q-75 -75 -125.5 -158t-65.5 -156h126l-51 -258h-284z" />
<glyph unicode="&#x2019;" horiz-adv-x="563" d="M367 823h-180q161 166 191 315h-126l51 257h284l-38 -193q-22 -116 -64 -206t-118 -173z" />
<glyph unicode="&#x201a;" horiz-adv-x="563" d="M165 -314h-183q78 78 129 161.5t64 152.5h-127l50 257h285l-37 -192q-23 -118 -65.5 -209t-115.5 -170z" />
<glyph unicode="&#x201c;" horiz-adv-x="1013" d="M611 823l37 193q23 116 66 207.5t119 171.5h180q-75 -75 -125.5 -158t-65.5 -156h125l-50 -258h-286zM187 823l38 193q23 122 67 212.5t114 166.5h181q-75 -75 -125.5 -158t-65.5 -156h126l-51 -258h-284z" />
<glyph unicode="&#x201d;" horiz-adv-x="1013" d="M793 823h-182q162 162 193 315h-126l51 257h284l-38 -190q-24 -125 -68 -215t-114 -167zM367 823h-180q161 166 191 315h-126l51 257h284l-38 -190q-22 -120 -63.5 -209.5t-118.5 -172.5z" />
<glyph unicode="&#x201e;" horiz-adv-x="1013" d="M596 -314h-182q80 80 130.5 164.5t61.5 149.5h-126l51 257h284l-38 -192q-23 -118 -65 -208.5t-116 -170.5zM170 -314h-180q77 77 127.5 161.5t62.5 152.5h-126l51 257h284l-38 -192q-22 -117 -64.5 -209.5t-116.5 -169.5z" />
<glyph unicode="&#x2022;" horiz-adv-x="709" d="M669 669q0 -120 -86 -206t-206 -86q-118 0 -203 85.5t-85 206.5t84.5 205.5t203.5 84.5q121 0 206.5 -84.5t85.5 -205.5z" />
<glyph unicode="&#x2026;" horiz-adv-x="2027" d="M132 0l58 302h286l-58 -302h-286zM779 0l59 302h286l-59 -302h-286zM1423 0l58 302h286l-58 -302h-286z" />
<glyph unicode="&#x202f;" horiz-adv-x="325" />
<glyph unicode="&#x2039;" horiz-adv-x="675" d="M262 138l-190 357l14 70l320 364h237l-6 -41l-326 -362l186 -350l-5 -38h-230z" />
<glyph unicode="&#x203a;" horiz-adv-x="675" d="M413 929l190 -358l-14 -70l-320 -363h-236l6 40l325 363l-186 349l5 39h230z" />
<glyph unicode="&#x205f;" horiz-adv-x="407" />
<glyph unicode="&#x20ac;" d="M795 1198q-106 0 -168.5 -73.5t-97.5 -218.5h293l-29 -148h-298q-14 -52 -19 -106h307l-29 -147h-301l-3 -68q0 -124 44 -182t119 -58q133 0 190 127l240 -40q-50 -150 -159 -226t-271 -76q-224 0 -335 133t-111 390h-139l30 147h126q9 68 19 106h-125l32 148h133 q73 258 219 384t378 126q341 0 361 -297l-255 -47q-10 65 -43.5 95.5t-107.5 30.5z" />
<glyph unicode="&#x2122;" horiz-adv-x="2027" d="M1108 760h-165v635h246l138 -298q21 -49 64 -158l23 60l40 98l143 298h240v-635h-163v337q0 16 8 170l-30 -74l-45 -108l-153 -325h-129l-148 325l-76 182q7 -141 7 -170v-337zM602 1257v-497h-178v497h-241v138h667v-138h-248z" />
<glyph unicode="&#xe000;" horiz-adv-x="1069" d="M0 1069h1069v-1069h-1069v1069z" />
</font>
</defs>
</svg>
