<?xml version="1.0" standalone="no"?>
<!DOCTYPE svg PUBLIC "-//W3C//DTD SVG 1.1//EN" "http://www.w3.org/Graphics/SVG/1.1/DTD/svg11.dtd" >
<svg xmlns="http://www.w3.org/2000/svg">
<metadata></metadata>
<defs>
<font id="arimobold" horiz-adv-x="1127" >
<font-face units-per-em="2048" ascent="1638" descent="-410" />
<missing-glyph horiz-adv-x="563" />
<glyph horiz-adv-x="2048" />
<glyph horiz-adv-x="2048" />
<glyph unicode="&#xd;" horiz-adv-x="563" />
<glyph unicode=" "  horiz-adv-x="563" />
<glyph unicode="&#x09;" horiz-adv-x="563" />
<glyph unicode="&#xa0;" horiz-adv-x="563" />
<glyph unicode="!" horiz-adv-x="675" d="M450 422h-227l-32 973h291zM191 0v267h285v-267h-285z" />
<glyph unicode="&#x22;" horiz-adv-x="961" d="M799 889h-217l-27 506h273zM377 889h-217l-26 506h270z" />
<glyph unicode="#" d="M900 853l-68 -328h212v-148h-243l-81 -377h-155l79 377h-303l-80 -377h-151l78 377h-153v148h186l69 328h-205v147h236l83 381h151l-81 -381h304l83 381h155l-83 -381h162v-147h-195zM445 853l-72 -328h306l69 328h-303z" />
<glyph unicode="$" d="M1099 408q0 -179 -120.5 -277.5t-355.5 -107.5v-173h-108v170q-213 8 -332 100.5t-156 283.5l253 46q19 -111 75 -163t160 -62v387q-3 2 -15 4.5t-16 2.5q-160 36 -242 86t-126.5 127t-44.5 188q0 164 113.5 254t330.5 98v133h108v-133q129 -5 216 -41t140 -106t85 -199 l-261 -39q-15 86 -58 133t-122 58v-348l11 -2q28 0 174 -47.5t218.5 -140.5t72.5 -232zM515 1182q-184 -14 -184 -158q0 -44 15 -72.5t44.5 -47.5t124.5 -51v329zM842 404q0 49 -18 80.5t-52 51t-149 52.5v-363q219 15 219 179z" />
<glyph unicode="%" horiz-adv-x="1802" d="M1749 428q0 -216 -89 -330t-261 -114q-174 0 -262.5 113t-88.5 331q0 221 85.5 332.5t269.5 111.5q178 0 262 -112.5t84 -331.5zM546 0h-203l910 1395h207zM404 1411q177 0 262.5 -112t85.5 -332q0 -216 -89.5 -330t-263.5 -114q-172 0 -260.5 113t-88.5 331 q0 225 85.5 334.5t268.5 109.5zM1536 428q0 157 -30 224.5t-103 67.5q-79 0 -109.5 -68.5t-30.5 -223.5q0 -159 32 -223.5t106 -64.5q72 0 103.5 67t31.5 221zM538 967q0 156 -30.5 223t-103.5 67q-79 0 -110 -66.5t-31 -223.5q0 -156 32.5 -223t106.5 -67q73 0 104.5 67.5 t31.5 222.5z" />
<glyph unicode="&#x26;" horiz-adv-x="1464" d="M89 381q0 134 80 238.5t255 185.5q-74 148 -74 276q0 155 97 238.5t277 83.5q166 0 262.5 -79.5t96.5 -214.5q0 -76 -38.5 -137.5t-109.5 -114t-240 -131.5q98 -174 242 -333q103 156 156 359l207 -69q-67 -231 -191 -416q85 -72 176 -72q64 0 116 16v-201 q-55 -22 -130 -22q-85 0 -170.5 31t-156.5 89q-168 -128 -375 -128q-228 0 -354 105.5t-126 295.5zM861 1107q0 56 -37.5 92t-101.5 36q-77 0 -117 -43t-40 -113q0 -86 54 -191q104 45 149 75.5t69 65t24 78.5zM780 244q-164 183 -269 373q-170 -80 -170 -232 q0 -98 64 -157.5t175 -59.5q64 0 116 24t84 52z" />
<glyph unicode="'" horiz-adv-x="482" d="M350 889h-216l-26 506h269z" />
<glyph unicode="(" horiz-adv-x="675" d="M395 -421q-155 224 -224.5 446.5t-69.5 500.5q0 276 69.5 498t224.5 445h278q-156 -226 -227 -449.5t-71 -494.5t70.5 -493t227.5 -453h-278z" />
<glyph unicode=")" horiz-adv-x="675" d="M2 -421q158 232 228 453t70 493t-71.5 496t-226.5 448h278q157 -225 225.5 -447.5t68.5 -495.5q0 -276 -68.5 -498.5t-225.5 -448.5h-278z" />
<glyph unicode="*" horiz-adv-x="789" d="M487 1124l233 103l67 -195l-247 -61l184 -211l-182 -119l-145 249l-148 -249l-184 121l188 209l-247 61l67 195l237 -103l-18 271h213z" />
<glyph unicode="+" horiz-adv-x="1184" d="M704 563v-404h-224v404h-395v222h395v404h224v-404h398v-222h-398z" />
<glyph unicode="," horiz-adv-x="563" d="M428 65q0 -118 -25.5 -209.5t-81.5 -169.5h-183q58 70 94.5 154.5t36.5 159.5h-127v302h286v-237z" />
<glyph unicode="-" horiz-adv-x="675" d="M79 405v241h515v-241h-515z" />
<glyph unicode="." horiz-adv-x="563" d="M138 0v302h286v-302h-286z" />
<glyph unicode="/" horiz-adv-x="563" d="M20 -41l288 1510h236l-284 -1510h-240z" />
<glyph unicode="0" d="M1044 698q0 -353 -121 -535.5t-364 -182.5q-479 0 -479 718q0 250 52.5 408.5t157.5 234t277 75.5q248 0 362.5 -179.5t114.5 -538.5zM765 698q0 193 -18.5 300t-60.5 153.5t-121 46.5q-84 0 -127 -47t-61.5 -153.5t-18.5 -299.5q0 -191 19.5 -298.5t61.5 -154t122 -46.5 t123 49t62 157t19 293z" />
<glyph unicode="1" d="M128 0v207h345v951l-334 -209v219l349 227h263v-1188h320v-207h-943z" />
<glyph unicode="2" d="M70 0v193q55 120 155.5 234t252.5 237q147 119 205.5 196.5t58.5 151.5q0 182 -183 182q-89 0 -136 -48t-61 -144l-280 16q24 194 145 296t330 102q226 0 347 -103t121 -289q0 -98 -39 -177.5t-99 -146t-134 -125t-143 -114t-126 -112t-85 -120.5h647v-229h-976z" />
<glyph unicode="3" d="M1054 387q0 -196 -128.5 -303t-366.5 -107q-224 0 -357 103.5t-155 298.5l283 25q26 -201 228 -201q100 0 155.5 49.5t55.5 151.5q0 93 -67 142.5t-200 49.5h-97v225h91q120 0 180.5 49t60.5 140q0 86 -48 135t-141 49q-86 0 -139 -47.5t-61 -134.5l-278 20 q22 180 149.5 282t333.5 102q219 0 342.5 -98.5t123.5 -273.5q0 -130 -77 -214.5t-221 -111.5v-4q160 -19 246.5 -105.5t86.5 -221.5z" />
<glyph unicode="4" d="M931 284v-284h-266v284h-634v209l589 902h311v-904h186v-207h-186zM665 947q0 54 3.5 116.5t5.5 79.5q-26 -55 -93 -160l-324 -492h408v456z" />
<glyph unicode="5" d="M1071 464q0 -221 -138 -352.5t-379 -131.5q-209 0 -335.5 94.5t-156.5 273.5l279 23q21 -89 76.5 -129.5t139.5 -40.5q104 0 166 66.5t62 190.5q0 110 -58.5 176t-163.5 66q-116 0 -189 -90h-271l48 785h839v-207h-586l-23 -352q101 89 253 89q199 0 318 -124t119 -337z " />
<glyph unicode="6" d="M1054 456q0 -222 -124.5 -349t-344.5 -127q-246 0 -378.5 173t-132.5 512q0 374 134.5 562.5t383.5 188.5q177 0 279.5 -78.5t145.5 -242.5l-263 -37q-37 138 -168 138q-112 0 -176 -112t-64 -340q45 75 124 114.5t179 39.5q188 0 296.5 -119t108.5 -323zM775 448 q0 119 -55 182t-151 63q-92 0 -147.5 -59t-55.5 -156q0 -122 58 -201.5t152 -79.5t146.5 67t52.5 184z" />
<glyph unicode="7" d="M1039 1174q-95 -148 -178.5 -288t-146 -281t-98.5 -290t-36 -315h-290q0 174 45.5 337t131.5 332t313 497h-693v229h952v-221z" />
<glyph unicode="8" d="M1065 393q0 -196 -129.5 -304.5t-370.5 -108.5q-238 0 -369.5 108t-131.5 303q0 134 77.5 225.5t206.5 113.5v4q-112 24 -181.5 111.5t-69.5 200.5q0 172 121.5 271t342.5 99q227 0 348.5 -96.5t121.5 -275.5q0 -113 -69 -199.5t-185 -108.5v-4q135 -22 211.5 -110.5 t76.5 -228.5zM744 1030q0 99 -45.5 145t-137.5 46q-180 0 -180 -191q0 -200 182 -200q91 0 136 46.5t45 153.5zM777 416q0 219 -218 219q-101 0 -155 -57.5t-54 -165.5q0 -123 53.5 -179.5t163.5 -56.5q108 0 159 56.5t51 183.5z" />
<glyph unicode="9" d="M1052 720q0 -372 -135.5 -556t-384.5 -184q-185 0 -289 79t-148 249l261 37q39 -146 179 -146q116 0 179 112t65 332q-37 -75 -123 -117t-185 -42q-184 0 -292.5 125.5t-108.5 338.5q0 220 127.5 344t359.5 124q251 0 373 -174t122 -522zM758 915q0 129 -57 206t-151 77 q-92 0 -145 -67t-53 -185q0 -115 52.5 -185t146.5 -70q90 0 148.5 61t58.5 163z" />
<glyph unicode=":" horiz-adv-x="675" d="M195 744v280h285v-280h-285zM195 0v278h285v-278h-285z" />
<glyph unicode=";" horiz-adv-x="675" d="M197 744v280h285v-280h-285zM482 65q0 -118 -25 -209.5t-82 -169.5h-182q63 80 97.5 162t34.5 152h-128v278h285v-213z" />
<glyph unicode="&#x3c;" horiz-adv-x="1184" d="M85 511v319l1017 387v-226l-825 -322l825 -321v-224z" />
<glyph unicode="=" horiz-adv-x="1184" d="M84 834v220h1017v-220h-1017zM84 288v219h1017v-219h-1017z" />
<glyph unicode="&#x3e;" horiz-adv-x="1184" d="M85 124v224l824 321l-824 322v226l1017 -387v-319z" />
<glyph unicode="?" horiz-adv-x="1238" d="M1122 1016q0 -96 -43 -172.5t-161 -160.5l-76 -54q-67 -49 -100 -98.5t-36 -108.5h-264q5 101 56 180t150 148q106 74 150 130t44 124q0 87 -57 137.5t-162 50.5q-100 0 -168 -58.5t-80 -154.5l-282 12q27 201 165.5 313t360.5 112q234 0 368.5 -106.5t134.5 -293.5z M434 0v267h286v-267h-286z" />
<glyph unicode="@" horiz-adv-x="1977" d="M1859 718q0 -180 -63 -328.5t-173.5 -232.5t-239.5 -84q-91 0 -140 45t-49 126q0 36 6 66h-6q-50 -104 -147.5 -170.5t-199.5 -66.5q-155 0 -240.5 100.5t-85.5 280.5q0 162 63.5 303.5t177 222t254.5 80.5q193 0 261 -172h6l39 151h154l-116 -501q-36 -171 -36 -238 q0 -50 23 -70.5t54 -20.5q79 0 151.5 68.5t114.5 184t42 254.5q0 173 -76 306t-218.5 205.5t-331.5 72.5q-238 0 -419 -104t-284.5 -300t-103.5 -440q0 -193 79 -339t221.5 -220.5t334.5 -74.5q291 0 583 153l61 -121q-166 -94 -325 -134.5t-326 -40.5q-234 0 -411.5 94.5 t-277 273.5t-99.5 409q0 281 125 507.5t346 351t494 124.5q241 0 417 -89.5t268.5 -252.5t92.5 -379zM1219 714q0 94 -59 153.5t-152 59.5t-167 -62t-115 -175.5t-41 -233.5q0 -112 48 -177.5t147 -65.5q65 0 127 41.5t110.5 120t75 179t26.5 160.5z" />
<glyph unicode="A" horiz-adv-x="1464" d="M1122 0l-124 356h-532l-123 -356h-293l509 1395h345l507 -1395h-289zM732 1180l-6 -22q-10 -35 -24 -80.5t-170 -501.5h401l-138 401l-43 135z" />
<glyph unicode="B" horiz-adv-x="1464" d="M1372 398q0 -190 -142.5 -294t-395.5 -104h-698v1395h638q256 0 387 -88.5t131 -262.5q0 -118 -66 -200t-200 -110q169 -20 257.5 -106.5t88.5 -229.5zM998 1005q0 94 -60 133.5t-178 39.5h-332v-345h334q124 0 180 43t56 129zM1079 421q0 196 -281 196h-370v-400h381 q140 0 205 51t65 153z" />
<glyph unicode="C" horiz-adv-x="1464" d="M787 210q264 0 367 265l255 -96q-82 -202 -241 -300.5t-381 -98.5q-337 0 -520.5 190.5t-183.5 533.5t177.5 527.5t513.5 184.5q246 0 400.5 -98.5t216.5 -289.5l-257 -71q-33 105 -128.5 167t-225.5 62q-198 0 -300.5 -123t-102.5 -359q0 -241 105.5 -367.5 t304.5 -126.5z" />
<glyph unicode="D" horiz-adv-x="1464" d="M1379 708q0 -216 -84.5 -377t-239.5 -246t-355 -85h-564v1395h505q352 0 545 -177.5t193 -509.5zM1085 708q0 225 -117 343t-333 118h-207v-943h247q188 0 299 129.5t111 352.5z" />
<glyph unicode="E" horiz-adv-x="1352" d="M136 0v1395h1097v-226h-805v-350h744v-226h-744v-367h845v-226h-1137z" />
<glyph unicode="F" horiz-adv-x="1238" d="M428 1169v-431h713v-226h-713v-512h-292v1395h1028v-226h-736z" />
<glyph unicode="G" horiz-adv-x="1577" d="M798 209q114 0 221 33t165 85v193h-341v216h608v-513q-111 -114 -288.5 -178.5t-372.5 -64.5q-341 0 -524 188.5t-183 535.5q0 344 184 528t530 184q491 0 625 -364l-270 -81q-43 106 -136 160.5t-219 54.5q-206 0 -313 -124.5t-107 -357.5q0 -237 110.5 -366t310.5 -129 z" />
<glyph unicode="H" horiz-adv-x="1464" d="M1036 0v598h-608v-598h-292v1395h292v-555h608v555h292v-1395h-292z" />
<glyph unicode="I" horiz-adv-x="563" d="M136 0v1395h292v-1395h-292z" />
<glyph unicode="J" d="M519 -20q-217 0 -333.5 94t-154.5 304l290 43q18 -108 66.5 -160t133.5 -52q87 0 132 58.5t45 167.5v731h-278v229h569v-953q0 -218 -123.5 -340t-346.5 -122z" />
<glyph unicode="K" horiz-adv-x="1464" d="M1101 0l-501 641l-172 -132v-509h-292v1395h292v-633l628 633h341l-596 -590l644 -805h-344z" />
<glyph unicode="L" horiz-adv-x="1238" d="M136 0v1395h292v-1169h748v-226h-1040z" />
<glyph unicode="M" horiz-adv-x="1688" d="M1294 0v845q0 29 0.5 58t9.5 246q-70 -266 -104 -371l-252 -778h-207l-252 778l-106 371q12 -229 12 -304v-845h-259v1395h391l249 -780l22 -75l47 -188l63 224l256 819h389v-1395h-259z" />
<glyph unicode="N" horiz-adv-x="1464" d="M985 0l-608 1074q18 -156 18 -251v-823h-259v1395h333l617 -1083q-18 149 -18 272v811h260v-1395h-343z" />
<glyph unicode="O" horiz-adv-x="1577" d="M1492 704q0 -218 -86 -383.5t-246.5 -253t-374.5 -87.5q-329 0 -515.5 193.5t-186.5 530.5q0 336 186 524t518 188t518.5 -190t186.5 -522zM1194 704q0 226 -107 354t-300 128q-196 0 -303 -127t-107 -355q0 -230 109.5 -362t298.5 -132q196 0 302.5 128.5t106.5 365.5z " />
<glyph unicode="P" horiz-adv-x="1352" d="M1283 953q0 -134 -61.5 -240t-175.5 -164t-272 -58h-346v-491h-292v1395h626q251 0 386 -115.5t135 -326.5zM989 948q0 220 -259 220h-302v-452h310q120 0 185.5 60t65.5 172z" />
<glyph unicode="Q" horiz-adv-x="1577" d="M1492 704q0 -279 -137 -465t-382 -235q34 -98 95 -141.5t170 -43.5q59 0 118 10l-2 -200q-124 -28 -239 -28q-162 0 -267.5 90t-170.5 299q-282 27 -438 215.5t-156 498.5q0 336 186 524t518 188t518.5 -190t186.5 -522zM1194 704q0 226 -107 354t-300 128 q-196 0 -303 -127t-107 -355q0 -230 109 -362.5t299 -132.5q196 0 302.5 128.5t106.5 366.5z" />
<glyph unicode="R" horiz-adv-x="1464" d="M1094 0l-324 530h-342v-530h-292v1395h697q249 0 384.5 -107.5t135.5 -308.5q0 -146 -83 -252.5t-225 -140.5l378 -586h-329zM1059 967q0 201 -257 201h-374v-412h382q123 0 186 55.5t63 155.5z" />
<glyph unicode="S" horiz-adv-x="1352" d="M1273 402q0 -205 -152 -313.5t-446 -108.5q-268 0 -420.5 95t-196.5 288l283 47q28 -111 111.5 -161t230.5 -50q306 0 306 186q0 60 -35 98.5t-99 64t-245 62.5q-157 36 -218 58.5t-110.5 52.5t-84.5 73t-54 100t-19 132q0 189 142 289.5t413 100.5q260 0 390 -81.5 t168 -268.5l-284 -38q-21 90 -88 135.5t-192 45.5q-265 0 -265 -167q0 -54 28 -88.5t83.5 -59t224.5 -60.5q201 -43 288 -79t137.5 -84t77 -115t26.5 -154z" />
<glyph unicode="T" horiz-adv-x="1238" d="M765 1169v-1169h-292v1169h-450v226h1194v-226h-452z" />
<glyph unicode="U" horiz-adv-x="1464" d="M716 -20q-288 0 -441 140.5t-153 402.5v872h292v-850q0 -165 78.5 -250.5t231.5 -85.5q156 0 240 89.5t84 256.5v840h292v-857q0 -266 -163.5 -412t-460.5 -146z" />
<glyph unicode="V" horiz-adv-x="1352" d="M826 0h-296l-516 1395h305l287 -896q27 -87 73 -263l21 85l50 178l287 896h301z" />
<glyph unicode="W" horiz-adv-x="1913" d="M1551 0h-346l-189 807q-35 142 -59 298q-23 -130 -38 -197.5t-211 -907.5h-347l-359 1395h296l202 -901l45 -218q28 138 54.5 263t197.5 856h327l176 -743q21 -83 70 -376l25 115l52 228l169 776h296z" />
<glyph unicode="X" horiz-adv-x="1352" d="M1028 0l-351 555l-350 -555h-309l483 734l-443 661h309l310 -493l310 493h307l-424 -661l465 -734h-307z" />
<glyph unicode="Y" horiz-adv-x="1352" d="M823 572v-572h-291v572l-497 823h306l334 -590l339 590h306z" />
<glyph unicode="Z" horiz-adv-x="1238" d="M1180 0h-1120v207l755 959h-679v229h1003v-203l-754 -963h795v-229z" />
<glyph unicode="[" horiz-adv-x="675" d="M114 -421v1890h536v-188h-273v-1513h273v-189h-536z" />
<glyph unicode="\" horiz-adv-x="563" d="M304 -41l-283 1511h235l288 -1511h-240z" />
<glyph unicode="]" horiz-adv-x="675" d="M25 -421v189h275v1513h-275v188h536v-1890h-536z" />
<glyph unicode="^" horiz-adv-x="1184" d="M913 509l-323 744l-321 -744h-224l387 886h318l389 -886h-226z" />
<glyph unicode="_" d="M-20 -248v78h1165v-78h-1165z" />
<glyph unicode="`" horiz-adv-x="675" d="M402 1171l-337 273v43h256l248 -285v-31h-167z" />
<glyph unicode="a" d="M389 -20q-155 0 -242.5 84.5t-87.5 238.5q0 166 108.5 253.5t314.5 88.5l231 4v55q0 105 -36.5 156t-120.5 51q-77 0 -113 -35t-45 -117l-290 14q27 157 143 237.5t317 80.5q203 0 313 -100t110 -284v-390q0 -90 20.5 -124.5t67.5 -34.5q32 0 61 6v-150l-44 -11t-39.5 -8 t-42 -5t-52.5 -2q-105 0 -155 51.5t-60 151.5h-5q-117 -211 -353 -211zM713 496l-143 -2q-97 -4 -137.5 -21.5t-62 -53t-21.5 -94.5q0 -77 35.5 -114t93.5 -37q66 0 119.5 36t84.5 98.5t31 133.5v54z" />
<glyph unicode="b" horiz-adv-x="1238" d="M1155 540q0 -266 -106.5 -413t-304.5 -147q-113 0 -196.5 49.5t-127.5 142.5h-2q0 -34 -4.5 -94.5t-9.5 -77.5h-270q8 92 8 245v1224h278v-410l-4 -174h4q94 206 342 206q190 0 291.5 -144t101.5 -407zM865 540q0 182 -53.5 270t-165.5 88t-171 -94.5t-59 -272.5 q0 -171 58 -266t170 -95q221 0 221 370z" />
<glyph unicode="c" d="M588 -20q-243 0 -376 145t-133 405q0 265 133.5 413t379.5 148q189 0 313 -95t155 -262l-280 -14q-12 82 -59.5 131t-134.5 49q-215 0 -215 -359q0 -371 219 -371q79 0 132.5 50t66.5 149l279 -13q-15 -109 -78.5 -195.5t-167.5 -133.5t-234 -47z" />
<glyph unicode="d" horiz-adv-x="1238" d="M836 0q-4 15 -9.5 75t-5.5 99h-4q-90 -194 -343 -194q-187 0 -289 146t-102 409q0 266 107.5 411t304.5 145q114 0 196.5 -47.5t127.5 -141.5h2l-2 176v391h278v-1235q0 -99 8 -234h-269zM823 542q0 173 -58 266.5t-171 93.5q-112 0 -166.5 -90.5t-54.5 -276.5 q0 -365 219 -365q110 0 170.5 96.5t60.5 275.5z" />
<glyph unicode="e" d="M580 -20q-241 0 -371 143t-130 418q0 265 132 407.5t373 142.5q231 0 352.5 -153t121.5 -448v-8h-687q0 -156 58 -236t165 -80q148 0 186 128l262 -23q-113 -291 -462 -291zM580 916q-98 0 -151 -68.5t-56 -191.5h416q-8 130 -62.5 195t-146.5 65z" />
<glyph unicode="f" horiz-adv-x="675" d="M468 883v-883h-277v883h-156v188h156v112q0 146 77.5 216t234.5 70q78 0 176 -16v-179q-40 9 -81 9q-71 0 -100.5 -28t-29.5 -100v-84h211v-188h-211z" />
<glyph unicode="g" horiz-adv-x="1238" d="M590 -430q-196 0 -315.5 75t-146.5 213l278 33q15 -64 64 -101t128 -37q116 0 169.5 71.5t53.5 212.5v56l2 106h-2q-92 -197 -345 -197q-187 0 -290 140.5t-103 401.5q0 263 106 405.5t308 142.5q234 0 324 -193h5q0 35 4.5 94t9.5 78h263q-6 -107 -6 -247v-791 q0 -229 -129.5 -346t-377.5 -117zM823 550q0 166 -59 258.5t-168 92.5q-223 0 -223 -357q0 -349 221 -349q111 0 170 92.5t59 262.5z" />
<glyph unicode="h" horiz-adv-x="1238" d="M416 857q56 123 141.5 178.5t202.5 55.5q171 0 262 -105t91 -307v-679h-277v600q0 282 -192 282q-100 0 -162 -86.5t-62 -222.5v-573h-278v1469h278v-401q0 -108 -8 -211h4z" />
<glyph unicode="i" horiz-adv-x="563" d="M142 1264v205h278v-205h-278zM142 0v1071h278v-1071h-278z" />
<glyph unicode="j" horiz-adv-x="563" d="M143 1264v205h278v-205h-278zM137 -421q-99 0 -169 9v196l51 -4q71 0 97.5 31.5t26.5 129.5v1130h278v-1198q0 -141 -72 -217.5t-212 -76.5z" />
<glyph unicode="k" d="M826 0l-286 485l-120 -83v-402h-278v1469h278v-841l382 443h299l-376 -418l405 -653h-304z" />
<glyph unicode="l" horiz-adv-x="563" d="M142 0v1469h278v-1469h-278z" />
<glyph unicode="m" horiz-adv-x="1802" d="M772 0v601q0 282 -162 282q-84 0 -137 -86t-53 -223v-574h-278v832q0 86 -2.5 141t-5.5 98h265q3 -19 8 -100.5t5 -112.5h4q51 123 128 178.5t184 55.5q245 0 298 -234h6q54 125 130 179.5t194 54.5q157 0 239 -106.5t82 -305.5v-680h-276v601q0 282 -163 282 q-81 0 -133 -78.5t-57 -217.5v-587h-276z" />
<glyph unicode="n" horiz-adv-x="1238" d="M836 0v601q0 282 -192 282q-100 0 -162 -86.5t-62 -222.5v-574h-278v832q0 86 -2.5 141t-5.5 98h265q3 -19 8 -100.5t5 -112.5h4q56 123 141.5 178.5t202.5 55.5q171 0 262 -105t91 -307v-680h-277z" />
<glyph unicode="o" horiz-adv-x="1238" d="M1159 537q0 -261 -144.5 -409t-399.5 -148q-251 0 -393.5 148.5t-142.5 408.5q0 258 142.5 406t399.5 148q262 0 400 -143t138 -411zM868 537q0 191 -62.5 277t-180.5 86q-254 0 -254 -363q0 -180 62 -273.5t179 -93.5q256 0 256 367z" />
<glyph unicode="p" horiz-adv-x="1238" d="M1155 541q0 -269 -107.5 -415t-303.5 -146q-112 0 -196 49t-128 141h-6q6 -29 6 -180v-411h-278v1246q0 151 -8 246h270q5 -18 8.5 -70.5t3.5 -103.5h4q94 197 342 197q187 0 290 -144t103 -409zM865 541q0 360 -221 360q-110 0 -169 -97t-59 -271t59 -268.5t168 -94.5 q222 0 222 371z" />
<glyph unicode="q" horiz-adv-x="1238" d="M83 535q0 265 108.5 411t305.5 146q234 0 324 -193q0 45 5.5 101t9.5 71h267q-6 -107 -6 -246v-1246h-276v446l5 153h-2q-92 -198 -350 -198q-187 0 -289 146t-102 409zM823 541q0 171 -57.5 265.5t-169.5 94.5q-223 0 -223 -366q0 -365 221 -365q109 0 169 96.5 t60 274.5z" />
<glyph unicode="r" horiz-adv-x="789" d="M142 0v820q0 88 -2.5 147t-5.5 104h265q3 -18 8 -108.5t5 -120.5h4q40 113 72 159t75.5 68.5t108.5 22.5q54 0 86 -15v-233q-67 15 -118 15q-104 0 -162 -84t-58 -249v-526h-278z" />
<glyph unicode="s" d="M1044 313q0 -156 -127 -244.5t-352 -88.5q-220 0 -337.5 70t-156.5 217l245 37q21 -76 72 -108t177 -32q117 0 170.5 30t53.5 93q0 52 -43 82t-146 51q-236 46 -318 86t-125 104t-43 157q0 154 118 239.5t335 85.5q191 0 307.5 -74.5t145.5 -214.5l-247 -26 q-12 65 -58.5 97.5t-147.5 32.5q-99 0 -148.5 -25.5t-49.5 -84.5q0 -47 38.5 -74t128.5 -45q125 -26 222.5 -53t156.5 -64.5t94 -96.5t35 -151z" />
<glyph unicode="t" horiz-adv-x="675" d="M416 -18q-123 0 -189.5 67t-66.5 202v632h-135v188h149l87 252h175v-252h203v-188h-203v-556q0 -79 29.5 -116t91.5 -37q33 0 93 14v-172q-103 -34 -234 -34z" />
<glyph unicode="u" horiz-adv-x="1238" d="M404 1071v-601q0 -282 190 -282q101 0 163 86.5t62 222.5v574h278v-831q0 -137 8 -240h-265q-12 143 -12 213h-5q-56 -122 -141.5 -177.5t-203.5 -55.5q-170 0 -261 104.5t-91 306.5v680h278z" />
<glyph unicode="v" d="M724 0h-333l-383 1071h294l187 -599q15 -49 70 -247q10 40 41 142t228 704h291z" />
<glyph unicode="w" horiz-adv-x="1577" d="M1300 0h-294l-170 653q-12 45 -47 220l-51 -222l-173 -651h-294l-277 1071h261l177 -819l14 74l24 116l169 629h298l164 -629q14 -52 40 -190l28 131l155 688h257z" />
<glyph unicode="x" d="M811 0l-250 388l-251 -388h-296l392 553l-373 518h300l228 -350l228 350h302l-373 -515l395 -556h-302z" />
<glyph unicode="y" d="M280 -421q-100 0 -175 13v198q52 -8 96 -8q59 0 98.5 19t70.5 62.5t70 147.5l-424 1060h294l168 -502q40 -108 100 -330l25 94l64 232l159 506h291l-424 -1127q-85 -206 -176.5 -285.5t-236.5 -79.5z" />
<glyph unicode="z" horiz-adv-x="1013" d="M81 0v197l504 673h-463v201h770v-199l-501 -669h549v-203h-859z" />
<glyph unicode="{" horiz-adv-x="789" d="M551 -421q-132 0 -212 78t-80 218v325q0 113 -54.5 169t-171.5 58v193q119 5 172.5 61t53.5 167v325q0 145 78 220.5t214 75.5h195v-188h-57q-90 0 -130 -51.5t-40 -155.5v-298q0 -94 -57 -162.5t-148 -86.5v-4q94 -22 149.5 -90t55.5 -160v-298q0 -105 40 -156t130 -51 h57v-189h-195z" />
<glyph unicode="|" horiz-adv-x="567" d="M154 -450v1919h260v-1919h-260z" />
<glyph unicode="}" horiz-adv-x="789" d="M43 -232h56q92 0 131 51t39 156v298q0 91 56 159.5t149 90.5v4q-90 18 -147.5 86t-57.5 163v298q0 104 -39 155.5t-131 51.5h-56v188h195q136 0 214 -75.5t78 -220.5v-325q0 -110 54.5 -166.5t173.5 -61.5v-193q-119 -2 -173.5 -59.5t-54.5 -167.5v-325 q0 -139 -79.5 -217.5t-212.5 -78.5h-195v189z" />
<glyph unicode="~" horiz-adv-x="1184" d="M843 511q-74 0 -145.5 20.5t-146.5 46.5q-133 47 -218 47q-71 0 -129.5 -21.5t-123.5 -65.5v210q112 84 268 84q104 0 240 -47q131 -45 180.5 -57t93.5 -12q133 0 246 91v-217q-64 -44 -121.5 -61.5t-143.5 -17.5z" />
<glyph unicode="&#xa2;" d="M582 337q87 0 146 54t73 153l280 -12q-22 -152 -132.5 -252.5t-287.5 -121.5v-189h-160v187q-213 21 -332 155.5t-119 367.5q0 230 116.5 369.5t334.5 164.5v182h160v-182q168 -19 275.5 -111.5t135.5 -242.5l-279 -14q-15 91 -70.5 140t-142.5 49q-123 0 -186 -91.5 t-63 -253.5q0 -172 65.5 -262t185.5 -90z" />
<glyph unicode="&#xa3;" d="M1107 359q-31 -170 -135 -264.5t-253 -94.5h-687v203q101 57 138 128.5t37 175.5v91h-186v168h176v246q0 199 106 301.5t316 102.5q167 0 263 -68.5t140 -219.5l-231 -47q-21 76 -61.5 111t-105.5 35q-90 0 -130 -57t-40 -181v-223h284v-168h-284v-89 q0 -102 -40.5 -174.5t-139.5 -127.5h376q103 0 156 49t70 142z" />
<glyph unicode="&#xa5;" d="M758 684h274v-144h-335v-161h335v-145h-335v-234h-269v234h-333v145h333l2 161h-335v144h273l-360 711h286l267 -590l272 590h286z" />
<glyph unicode="&#xa8;" horiz-adv-x="675" d="M446 1187v217h214v-217h-214zM16 1187v217h212v-217h-212z" />
<glyph unicode="&#xa9;" horiz-adv-x="1493" d="M1463 700q0 -191 -95.5 -358t-262 -262.5t-358.5 -95.5q-195 0 -362.5 99.5t-260 264.5t-92.5 352q0 191 96 357.5t262 262.5t357 96q193 0 359.5 -96.5t261.5 -262t95 -357.5zM1352 700q0 161 -81 300t-221.5 220.5t-302.5 81.5q-155 0 -293.5 -77.5t-223 -217.5 t-84.5 -307q0 -161 80.5 -302t219.5 -222t301 -81q163 0 303.5 81t221 222t80.5 302zM539 702q0 -134 58 -207t163 -73q66 0 116.5 36.5t77.5 104.5l159 -46q-58 -124 -144 -179.5t-209 -55.5q-191 0 -295.5 110t-104.5 310q0 201 101 306t290 105q129 0 215.5 -55.5 t134.5 -171.5l-155 -41q-25 61 -73 94.5t-117 33.5q-108 0 -162.5 -69t-54.5 -202z" />
<glyph unicode="&#xab;" d="M799 140l-254 357v70l254 364h236v-37l-252 -362l254 -358v-34h-238zM346 140l-255 357v70l255 364h234v-37l-251 -362l253 -358v-34h-236z" />
<glyph unicode="&#xad;" horiz-adv-x="675" d="M79 405v241h515v-241h-515z" />
<glyph unicode="&#xae;" horiz-adv-x="1493" d="M1463 700q0 -191 -95.5 -358t-262 -262.5t-358.5 -95.5q-195 0 -362.5 99.5t-260 264.5t-92.5 352q0 191 96 357.5t262 262.5t357 96q193 0 359.5 -96.5t261.5 -262t95 -357.5zM1352 700q0 161 -81 300t-221.5 220.5t-302.5 81.5q-155 0 -293.5 -77.5t-223 -217.5 t-84.5 -307q0 -161 80.5 -302t219.5 -222t301 -81q163 0 303.5 81t221 222t80.5 302zM914 294l-176 310h-116v-310h-176v807h326q152 0 227 -64t75 -176q0 -93 -47.5 -151.5t-124.5 -82.5l211 -333h-199zM896 859q0 57 -37 86.5t-106 29.5h-131v-243h142q66 0 99 35t33 92z " />
<glyph unicode="&#xb4;" horiz-adv-x="675" d="M86 1171v31l250 285h255v-43l-337 -273h-168z" />
<glyph unicode="&#xb8;" horiz-adv-x="675" d="M495 -233q0 -93 -77 -140.5t-223 -47.5q-45 0 -100 6v117q35 -7 83 -7q136 0 136 68q0 35 -28 52t-93 17q-38 0 -51 -2l61 170h142l-33 -81q93 -5 138 -45.5t45 -106.5z" />
<glyph unicode="&#xbb;" d="M92 140v34l254 358l-252 362v37h236l253 -364v-70l-253 -357h-238zM546 140v34l254 358l-252 362v37h234l256 -364v-70l-256 -357h-236z" />
<glyph unicode="&#x2c6;" horiz-adv-x="675" d="M730 1199v-28h-158l-201 190h-4l-209 -190h-158v28l255 315h227z" />
<glyph unicode="&#x2da;" horiz-adv-x="675" d="M542 1376q0 -104 -73 -177.5t-179 -73.5t-178.5 73.5t-72.5 177.5t73.5 178t177.5 74t178 -74t74 -178zM416 1376q0 51 -36 87.5t-90 36.5q-50 0 -87 -35.5t-37 -88.5q0 -55 37 -91t87 -36q53 0 89.5 37t36.5 90z" />
<glyph unicode="&#x2dc;" horiz-adv-x="675" d="M538 1171q-44 0 -88 19t-85.5 42t-79 42t-66.5 19q-41 0 -62 -23t-35 -99h-136q8 112 32.5 168t70 89t120.5 33q44 0 89 -18.5t86.5 -42t77.5 -42.5t65 -19q39 0 61.5 24.5t36.5 97.5h133q-7 -155 -62.5 -222.5t-157.5 -67.5z" />
<glyph unicode="&#x2000;" horiz-adv-x="814" />
<glyph unicode="&#x2001;" horiz-adv-x="1628" />
<glyph unicode="&#x2002;" horiz-adv-x="814" />
<glyph unicode="&#x2003;" horiz-adv-x="1628" />
<glyph unicode="&#x2004;" horiz-adv-x="542" />
<glyph unicode="&#x2005;" horiz-adv-x="407" />
<glyph unicode="&#x2006;" horiz-adv-x="271" />
<glyph unicode="&#x2007;" horiz-adv-x="271" />
<glyph unicode="&#x2008;" horiz-adv-x="203" />
<glyph unicode="&#x2009;" horiz-adv-x="325" />
<glyph unicode="&#x200a;" horiz-adv-x="90" />
<glyph unicode="&#x2010;" horiz-adv-x="675" d="M79 405v241h515v-241h-515z" />
<glyph unicode="&#x2011;" horiz-adv-x="675" d="M79 405v241h515v-241h-515z" />
<glyph unicode="&#x2012;" horiz-adv-x="675" d="M79 405v241h515v-241h-515z" />
<glyph unicode="&#x2013;" d="M61 444v200h1004v-200h-1004z" />
<glyph unicode="&#x2014;" horiz-adv-x="2027" d="M0 444v200h2028v-200h-2028z" />
<glyph unicode="&#x2018;" horiz-adv-x="563" d="M138 823v193q0 120 25.5 211.5t81.5 167.5h181q-62 -77 -96 -160t-34 -154h126v-258h-284z" />
<glyph unicode="&#x2019;" horiz-adv-x="563" d="M426 1202q0 -120 -24.5 -208t-83.5 -171h-180q129 166 129 315h-125v257h284v-193z" />
<glyph unicode="&#x201a;" horiz-adv-x="563" d="M427 65q0 -118 -25.5 -209.5t-81.5 -169.5h-183q62 75 97 158.5t35 155.5h-127v257h285v-192z" />
<glyph unicode="&#x201c;" horiz-adv-x="1013" d="M573 823v193q0 122 27 212.5t83 166.5h180q-61 -77 -95 -160t-34 -154h125v-258h-286zM149 823v193q0 120 26 211.5t81 167.5h182q-62 -77 -96 -160t-34 -154h126v-258h-285z" />
<glyph unicode="&#x201d;" horiz-adv-x="1013" d="M863 1205q0 -120 -25 -211.5t-83 -170.5h-182q132 166 132 315h-126v257h284v-190zM438 1205q0 -124 -25 -212.5t-83 -169.5h-181q130 166 130 315h-126v257h285v-190z" />
<glyph unicode="&#x201e;" horiz-adv-x="1013" d="M863 65q0 -118 -25.5 -210t-82.5 -169h-182q59 70 95.5 154.5t36.5 159.5h-126v257h284v-192zM438 65q0 -122 -25 -211t-83 -168h-181q62 77 96 160t34 154h-126v257h285v-192z" />
<glyph unicode="&#x2022;" horiz-adv-x="709" d="M644 669q0 -120 -86 -206t-206 -86q-117 0 -202.5 85.5t-85.5 206.5t85 205.5t203 84.5q121 0 206.5 -84.5t85.5 -205.5z" />
<glyph unicode="&#x2026;" horiz-adv-x="2027" d="M1513 0v302h285v-302h-285zM871 0v302h283v-302h-283zM223 0v302h285v-302h-285z" />
<glyph unicode="&#x202f;" horiz-adv-x="325" />
<glyph unicode="&#x2039;" horiz-adv-x="675" d="M346 140l-255 357v70l255 364h234v-37l-251 -362l253 -358v-34h-236z" />
<glyph unicode="&#x203a;" horiz-adv-x="675" d="M92 140v34l254 358l-252 362v37h236l253 -364v-70l-253 -357h-238z" />
<glyph unicode="&#x205f;" horiz-adv-x="407" />
<glyph unicode="&#x20ac;" d="M651 197q72 0 114.5 45.5t52.5 126.5l274 -16q-31 -186 -144 -279.5t-301 -93.5q-223 0 -352 132t-157 393h-128l40 147h76l-2 51l2 55h-116l40 148h86q62 510 511 510q181 0 293.5 -93t141.5 -263l-277 -16q-10 74 -51.5 114.5t-114.5 40.5q-98 0 -150 -70.5t-67 -222.5 h323l-28 -148h-300l-2 -55l3 -51h336l-29 -147h-301q27 -308 227 -308z" />
<glyph unicode="&#x2122;" horiz-adv-x="2027" d="M1048 760h-164v635h246l137 -298q22 -49 65 -158l63 158l142 298h241v-635h-163v337q0 16 8 170l-30 -74l-46 -108l-152 -325h-130l-147 325l-77 182q7 -141 7 -170v-337zM543 1257v-497h-179v497h-240v138h667v-138h-248z" />
<glyph unicode="&#xe000;" horiz-adv-x="1069" d="M0 1069h1069v-1069h-1069v1069z" />
</font>
</defs>
</svg>
